<svg viewBox="0 0 64 64" xmlns="http://www.w3.org/2000/svg" fill="#7CB184" stroke="#7CB184"><g id="SVGRepo_bgCarrier" stroke-width="0"></g><g id="SVGRepo_tracerCarrier" stroke-linecap="round" stroke-linejoin="round"></g><g id="SVGRepo_iconCarrier"><defs><style>.a{fill:none;stroke:#7CB184;stroke-linejoin:round;stroke-width:2px;}</style></defs><title></title><rect class="a" height="6" width="13" x="25.5" y="5"></rect><path class="a" d="M36,16.1V11H28v5.1a5.05,5.05,0,0,1-2.91,4.62,8,8,0,0,0-4.66,7.65L21.75,54A5.24,5.24,0,0,0,27,59H37a5.24,5.24,0,0,0,5.23-5l1.32-25.66a8,8,0,0,0-4.66-7.65A5.05,5.05,0,0,1,36,16.1Z"></path><line class="a" x1="22" x2="42" y1="24" y2="24"></line></g></svg>