<svg xmlns="http://www.w3.org/2000/svg" width="100" height="100" style="shape-rendering:geometricPrecision;text-rendering:geometricPrecision;image-rendering:optimizeQuality;fill-rule:evenodd;clip-rule:evenodd"><path fill="#7bb184" d="M27.5-.5h12q6.013 2.398 9.5 8Q70.393-4.31 82.5 17q20.112 6.975 13.5 27.5-3.472 6.475-10.5 8.5-18.855 19.461-22 46.5h-28Q32.21 66.41 5 47.5q-11.068-20.595 10-30 .747-13.044 12.5-18m1 5q13.477-2.512 19 10 19.973-14.702 32 7 17.542 4.088 11.5 21-7.113 8.829-18 5a1668 1668 0 0 0-6.5 4.5q-8.363 2.208-14.5-3.5-14.02 15.68-28.5.5Q4.594 49.1 7 30.5q4.074-8.084 13-9-1.284-11.432 8.5-17m44 49q2.55-.24 5 .5-14.106 17.967-19 40.5a91 91 0 0 1-19 1q.161-9.357-3.5-18-5.18-10.55-11-20a36.2 36.2 0 0 0 8.5 5l12 24a340 340 0 0 0 1.5-26l4-4 5 27a1129 1129 0 0 0 9.5-25 38.3 38.3 0 0 0 7-5m-16 5q1.65-1.647 4-.5a14.4 14.4 0 0 0-2.5 5.5q-.297-2.822-1.5-5m-18 4q1.064-1.356 3-1 .24 2.55-.5 5-.912-2.35-2.5-4" style="opacity:.922"/><path fill="#7baf83" d="M44.5 21.5h5q-.5 17.5-18 18v-5q12-1 13-13" style="opacity:.944"/><path fill="#7baf84" d="M68.5 25.5h5v5q-5 0-5 5h-5q-.145-6.347 5-10" style="opacity:.921"/></svg>