<svg width="24" height="24" viewBox="0 0 24 24" fill="none" xmlns="http://www.w3.org/2000/svg">
<path d="M15.7431 3.00464C15.7923 3.00311 15.8415 3.00158 15.8921 3C16.0219 3.01743 16.0219 3.01743 16.103 3.08988C16.1531 3.18364 16.1705 3.24074 16.1707 3.34495C16.172 3.38548 16.172 3.38548 16.1732 3.42683C16.1401 3.55305 16.0891 3.59463 15.9786 3.67247C15.8502 3.71431 15.719 3.73874 15.5862 3.76458C14.9518 3.90171 14.3405 4.12377 13.8137 4.49127C13.7744 4.51803 13.735 4.54478 13.6945 4.57235C13.1765 4.94629 12.8662 5.41209 12.6014 5.96511C12.7029 6.01406 12.8051 6.0601 12.9089 6.10472C13.5547 6.39112 14.0308 6.80633 14.29 7.4455C14.3043 7.48387 14.3185 7.52223 14.3333 7.56176C14.344 7.59042 14.3547 7.61908 14.3657 7.6486C14.4416 7.88804 14.4277 8.13289 14.4199 8.38056C14.4564 8.39075 14.493 8.40093 14.5306 8.41143C15.3999 8.70902 16.1671 9.41835 16.5847 10.1819C16.735 10.5096 16.8347 10.8469 16.8445 11.2054C16.8745 11.2085 16.9045 11.2115 16.9353 11.2147C17.8206 11.3272 18.6196 11.7881 19.1724 12.4498C19.7536 13.1794 20.0855 14.0474 19.9809 14.9668C19.9052 15.3929 19.7395 15.749 19.4424 16.0773C19.487 16.0826 19.487 16.0826 19.5325 16.088C19.8486 16.1346 19.8486 16.1346 19.97 16.2461C20.0612 16.5511 19.9077 16.9036 19.8215 17.1986C19.7998 17.2738 19.7998 17.2738 19.7777 17.3505C19.7382 17.4877 19.6983 17.6248 19.6585 17.7619C19.6162 17.9073 19.5742 18.0528 19.5322 18.1982C19.4522 18.4753 19.3719 18.7523 19.2915 19.0292C19.2019 19.3379 19.1126 19.6467 19.0233 19.9555C18.9113 20.3429 18.7993 20.7302 18.6868 21.1175C18.6785 21.1461 18.6702 21.1747 18.6617 21.2042C18.5923 21.443 18.5923 21.443 18.5632 21.5433C18.4703 21.8631 18.378 22.183 18.2866 22.5031C18.2422 22.6589 18.1975 22.8147 18.1528 22.9704C18.1331 23.0393 18.1135 23.1083 18.0941 23.1772C18.0682 23.2691 18.0419 23.3609 18.0155 23.4527C17.9943 23.5274 17.9943 23.5274 17.9726 23.6036C17.9234 23.7431 17.8653 23.8732 17.7538 23.9787C17.6925 23.9828 17.6311 23.984 17.5697 23.9842C17.5298 23.9843 17.4898 23.9845 17.4487 23.9847C17.3821 23.9847 17.3821 23.9847 17.3141 23.9847C17.244 23.9849 17.244 23.9849 17.1724 23.9852C17.0144 23.9856 16.8564 23.9858 16.6983 23.9859C16.5856 23.9862 16.4728 23.9864 16.36 23.9867C16.0207 23.9875 15.6813 23.988 15.3419 23.9883C15.1823 23.9885 15.0226 23.9887 14.8629 23.9889C14.3323 23.9896 13.8018 23.9902 13.2712 23.9905C13.1334 23.9906 12.9956 23.9907 12.8579 23.9908C12.8065 23.9908 12.8065 23.9908 12.7541 23.9908C12.1992 23.9912 11.6442 23.9922 11.0893 23.9935C10.52 23.9949 9.95064 23.9956 9.38133 23.9957C9.0615 23.9958 8.74168 23.9962 8.42185 23.9972C8.1211 23.9982 7.82035 23.9984 7.51959 23.9979C7.409 23.9979 7.29841 23.9982 7.18782 23.9987C7.03723 23.9995 6.88668 23.9992 6.73609 23.9986C6.66993 23.9993 6.66993 23.9993 6.60242 24C6.30819 23.9974 6.30819 23.9974 6.16842 23.9045C6.08022 23.7763 6.03987 23.6416 5.99943 23.4953C5.99002 23.463 5.9806 23.4307 5.9709 23.3975C5.9397 23.29 5.90933 23.1823 5.87896 23.0746C5.85698 22.9983 5.83496 22.922 5.81288 22.8457C5.75374 22.6408 5.69532 22.4357 5.63704 22.2306C5.57651 22.018 5.51533 21.8055 5.45422 21.5931C5.34436 21.2108 5.23507 20.8283 5.12604 20.4458C5.02599 20.0949 4.9253 19.7442 4.82443 19.3935C4.75111 19.1385 4.67799 18.8834 4.6049 18.6283C4.59031 18.5774 4.57571 18.5265 4.56068 18.4741C4.41685 17.9716 4.27502 17.4687 4.13861 16.9644C4.12743 16.9238 4.11625 16.8833 4.10473 16.8416C4.00747 16.4773 4.00747 16.4773 4.0285 16.282C4.09345 16.1847 4.09345 16.1847 4.20169 16.1182C4.32113 16.1048 4.42705 16.1106 4.54807 16.1182C4.52871 16.0933 4.50934 16.0684 4.48938 16.0427C4.031 15.4143 3.92935 14.7295 4.04227 13.9798C4.10909 13.6487 4.25511 13.3613 4.46148 13.0887C4.48101 13.0627 4.50055 13.0367 4.52067 13.01C4.78376 12.6923 5.17174 12.4952 5.54391 12.3108C5.52354 12.288 5.50317 12.2652 5.48218 12.2417C5.11944 11.8213 5.05382 11.455 5.11094 10.9188C5.27866 10.1098 5.94112 9.42439 6.63463 8.96218C6.81159 8.85055 6.99742 8.75437 7.18363 8.65739C7.71747 8.37318 8.06878 7.97417 8.26369 7.42039C8.3195 7.20932 8.33697 7.00041 8.31494 6.7839C8.31181 6.75066 8.30869 6.71741 8.30547 6.68315C8.2823 6.57034 8.26203 6.50512 8.18505 6.41544C8.04199 6.36713 7.90833 6.34403 7.75766 6.32653C7.58802 6.28407 7.54031 6.2269 7.44899 6.08793C7.42093 5.9287 7.43423 5.86473 7.52476 5.72714C7.70314 5.56316 7.90988 5.58959 8.14784 5.58833C8.19979 5.58798 8.19979 5.58798 8.25278 5.58762C8.3263 5.58724 8.39981 5.58697 8.47333 5.58681C8.58337 5.58642 8.69336 5.58515 8.80339 5.58385C9.40336 5.58011 9.96875 5.64039 10.5339 5.84484C10.5645 5.85532 10.595 5.8658 10.6264 5.87659C10.743 5.9171 10.8549 5.95715 10.9627 6.0158C11.0771 6.06042 11.1533 6.03702 11.2727 6.01116C11.4621 5.97371 11.6291 5.957 11.822 5.96511C11.8301 5.93146 11.8301 5.93146 11.8383 5.89714C11.9806 5.37987 12.2756 4.93185 12.6447 4.53221C12.6671 4.50519 12.6894 4.47817 12.7125 4.45033C13.3781 3.66799 14.6781 3.02641 15.7431 3.00464ZM8.9644 6.29262C8.97378 6.33355 8.97378 6.33355 8.98334 6.3753C9.15386 7.17587 8.95446 7.85367 8.49997 8.53329C8.21241 8.90764 7.82287 9.13117 7.40129 9.34866C7.14866 9.48052 6.92715 9.62982 6.71294 9.81346C6.67605 9.84502 6.63915 9.87658 6.60114 9.90909C6.19291 10.276 5.8524 10.7057 5.83076 11.254C5.84077 11.499 5.92065 11.655 6.10678 11.8246C6.40129 12.0449 6.73453 12.1119 7.1016 12.1488C7.15207 12.1539 7.15207 12.1539 7.20356 12.1592C7.63882 12.2011 8.07546 12.2159 8.51248 12.2315C8.60312 12.2349 8.69376 12.2383 8.7844 12.2417C9.00666 12.25 9.22893 12.2579 9.4512 12.2656C9.55872 12.2694 9.66624 12.2734 9.77375 12.2774C12.9774 12.5441 12.9774 12.5441 15.9786 11.8195C16.118 11.684 16.1272 11.5781 16.1274 11.3922C16.1104 10.7443 15.8113 10.1961 15.3283 9.74727C15.0423 9.49504 14.6457 9.15972 14.2467 9.11748C14.2351 9.14228 14.2235 9.16709 14.2115 9.19264C13.9152 9.79159 13.4694 10.1922 12.8135 10.429C12.1621 10.634 11.4927 10.5918 10.8668 10.3252C10.2624 10.0194 9.86287 9.5281 9.65716 8.91278C9.49393 8.29367 9.5585 7.67126 9.88109 7.10359C10.0148 6.90929 10.1773 6.74312 10.3499 6.5792C10.2329 6.46853 10.1026 6.44985 9.94671 6.41289C9.91794 6.40579 9.88917 6.39869 9.85952 6.39138C9.62449 6.334 9.41054 6.287 9.16736 6.29007C9.11001 6.29062 9.11001 6.29062 9.0515 6.29119C9.00839 6.2919 9.00839 6.2919 8.9644 6.29262ZM10.7856 7.12166C10.4516 7.46207 10.2799 7.8857 10.2934 8.34922C10.348 8.81791 10.5556 9.22008 10.9312 9.53232C11.1546 9.68937 11.3784 9.79272 11.6488 9.8544C11.6999 9.86611 11.6999 9.86611 11.752 9.87807C12.2229 9.94984 12.6765 9.82279 13.0658 9.57438C13.3912 9.32478 13.6562 8.94192 13.7271 8.54432C13.7721 7.99678 13.6568 7.60629 13.3033 7.17075C13.0873 6.94458 12.8154 6.80437 12.5148 6.70202C12.4719 6.70202 12.4291 6.70202 12.3849 6.70202C12.3765 6.73701 12.3681 6.772 12.3595 6.80805C12.3482 6.85328 12.337 6.89851 12.3254 6.94511C12.3088 7.01279 12.3088 7.01279 12.2919 7.08184C12.2797 7.11862 12.2675 7.15541 12.255 7.1933C12.1201 7.25708 11.969 7.25737 11.822 7.23424C11.7192 7.16653 11.6954 7.12658 11.67 7.00987C11.6675 6.9733 11.665 6.93673 11.6624 6.89905C11.6595 6.86216 11.6567 6.82527 11.6537 6.78726C11.6521 6.75913 11.6505 6.73101 11.6488 6.70202C11.328 6.70202 11.0111 6.91987 10.7856 7.12166ZM16.8012 11.9014C16.7559 11.9562 16.713 12.0129 16.6713 12.0703C16.2227 12.626 15.411 12.7536 14.7196 12.8492C14.3888 12.8902 14.0572 12.9151 13.7244 12.9351C13.6716 12.9384 13.6188 12.9417 13.5644 12.9451C12.0202 13.025 10.465 12.9374 8.92104 12.8924C8.65701 12.8847 8.39297 12.8773 8.12893 12.8701C8.02964 12.8673 7.93036 12.8644 7.83108 12.8614C6.39985 12.7956 6.39985 12.7956 5.16421 13.3992C4.86173 13.6961 4.73293 14.1024 4.71551 14.5065C4.73681 15.0171 4.90413 15.464 5.28413 15.8316C5.64384 16.0905 5.97588 16.1304 6.41692 16.1289C6.46526 16.129 6.5136 16.1292 6.5634 16.1294C6.72519 16.1298 6.88698 16.1296 7.04878 16.1294C7.16486 16.1296 7.28094 16.1298 7.39702 16.1301C7.67954 16.1306 7.96205 16.1307 8.24456 16.1306C8.47433 16.1305 8.7041 16.1306 8.93387 16.1308C8.98297 16.1308 8.98297 16.1308 9.03306 16.1308C9.09957 16.1309 9.16607 16.1309 9.23258 16.131C9.85609 16.1314 10.4796 16.1313 11.1031 16.1311C11.6728 16.1309 12.2425 16.1313 12.8121 16.1321C13.3977 16.1329 13.9833 16.1332 14.5688 16.1331C14.8973 16.133 15.2258 16.1331 15.5543 16.1337C15.8341 16.1342 16.1138 16.1342 16.3936 16.1337C16.5361 16.1335 16.6787 16.1335 16.8213 16.1339C16.9763 16.1344 17.1312 16.134 17.2862 16.1335C17.3307 16.1338 17.3751 16.1341 17.4209 16.1344C17.9244 16.1309 18.4421 16.0326 18.8227 15.7037C19.1544 15.3642 19.2494 14.9762 19.2692 14.5215C19.2317 13.752 18.8124 13.0381 18.23 12.5155C17.8492 12.2192 17.3124 11.9014 16.8012 11.9014ZM4.85115 16.7732C4.95767 17.1761 5.06509 17.5778 5.18037 17.9784C5.19489 18.029 5.20942 18.0797 5.22439 18.1319C5.2636 18.2687 5.30289 18.4055 5.34221 18.5423C5.38372 18.6867 5.42515 18.8312 5.4666 18.9757C5.53614 19.218 5.60572 19.4603 5.67535 19.7026C5.75539 19.9812 5.83536 20.2598 5.91529 20.5384C5.99279 20.8086 6.07033 21.0787 6.1479 21.3488C6.18064 21.4628 6.21337 21.5769 6.24609 21.6909C6.29192 21.8506 6.33782 22.0103 6.38373 22.1701C6.397 22.2164 6.41028 22.2626 6.42396 22.3103C6.46226 22.4435 6.50088 22.5765 6.53975 22.7095C6.5473 22.7354 6.55484 22.7612 6.56262 22.7878C6.58604 22.8677 6.60968 22.9475 6.63339 23.0273C6.64755 23.0751 6.66172 23.123 6.67631 23.1723C6.70157 23.2783 6.70157 23.2783 6.75624 23.3236C6.84913 23.3272 6.94216 23.328 7.03513 23.3276C7.09164 23.3275 7.14815 23.3274 7.20638 23.3272C7.2665 23.3269 7.32663 23.3265 7.38675 23.3262C7.44705 23.326 7.50734 23.3258 7.56764 23.3256C7.71571 23.3251 7.86379 23.3245 8.01186 23.3236C7.98543 22.9716 7.9291 22.6272 7.86497 22.2798C7.85435 22.2215 7.84375 22.1633 7.83317 22.105C7.80462 21.9481 7.77585 21.7912 7.74702 21.6343C7.71681 21.4697 7.6868 21.305 7.65677 21.1403C7.60637 20.8642 7.55584 20.5881 7.50521 20.3121C7.44024 19.9578 7.3755 19.6034 7.31084 19.2491C7.25515 18.944 7.19935 18.6388 7.14353 18.3337C7.12562 18.2358 7.10773 18.1378 7.08985 18.0399C7.06176 17.8862 7.03361 17.7326 7.00541 17.5789C6.99507 17.5225 6.98475 17.4662 6.97446 17.4098C6.96041 17.3329 6.94628 17.2559 6.93214 17.179C6.92425 17.136 6.91636 17.0929 6.90824 17.0486C6.88992 16.9561 6.86696 16.8645 6.84283 16.7732C6.18558 16.7732 5.52832 16.7732 4.85115 16.7732ZM7.57889 16.7732C7.79417 18.0504 8.02578 19.3247 8.25989 20.5988C8.30217 20.8289 8.34427 21.0591 8.38633 21.2892C8.42739 21.5138 8.46855 21.7384 8.50979 21.9629C8.53422 22.0959 8.55859 22.229 8.58289 22.362C8.60968 22.5086 8.63664 22.6552 8.66366 22.8018C8.67159 22.8454 8.67953 22.8891 8.68771 22.934C8.69505 22.9736 8.70238 23.0132 8.70994 23.054C8.71626 23.0885 8.72259 23.123 8.72911 23.1585C8.74458 23.244 8.74458 23.244 8.79121 23.3236C9.30558 23.3236 9.81996 23.3236 10.3499 23.3236C10.2851 22.1133 10.2092 20.9038 10.1297 19.6943C10.1123 19.4298 10.0951 19.1654 10.0779 18.9009C10.0644 18.6948 10.0509 18.4888 10.0374 18.2827C10.031 18.1851 10.0246 18.0875 10.0183 17.9899C10.0095 17.8544 10.0006 17.719 9.9916 17.5835C9.98779 17.5243 9.98779 17.5243 9.9839 17.4639C9.98141 17.4267 9.97893 17.3895 9.97637 17.3512C9.97429 17.3194 9.9722 17.2877 9.97006 17.2549C9.95611 17.094 9.9358 16.9337 9.91694 16.7732C9.14538 16.7732 8.37383 16.7732 7.57889 16.7732ZM10.653 16.7732C10.6868 17.5608 10.6868 17.5608 10.7323 18.3476C10.7356 18.3988 10.7389 18.45 10.7424 18.5027C10.7512 18.6393 10.7602 18.7759 10.7692 18.9124C10.7768 19.0274 10.7843 19.1424 10.7918 19.2574C10.8095 19.5285 10.8273 19.7995 10.8452 20.0706C10.8635 20.349 10.8817 20.6275 10.8998 20.906C10.9155 21.1471 10.9313 21.3882 10.9472 21.6292C10.9566 21.7724 10.966 21.9155 10.9753 22.0587C10.9856 22.2176 10.9961 22.3764 11.0066 22.5353C11.0097 22.5821 11.0127 22.6289 11.0158 22.6772C11.0187 22.7206 11.0216 22.764 11.0246 22.8087C11.0271 22.8461 11.0295 22.8835 11.0321 22.9221C11.0445 23.0565 11.0658 23.1901 11.086 23.3236C11.6861 23.3236 12.2862 23.3236 12.9045 23.3236C12.9718 22.6266 13.0244 21.9295 13.0698 21.2309C13.0792 21.0864 13.0887 20.9419 13.0982 20.7975C13.1141 20.5558 13.1299 20.3142 13.1456 20.0726C13.1637 19.7941 13.182 19.5157 13.2003 19.2372C13.2181 18.9672 13.2358 18.6971 13.2535 18.427C13.2609 18.3129 13.2684 18.1988 13.2759 18.0847C13.2864 17.9257 13.2967 17.7668 13.307 17.6078C13.3117 17.5377 13.3117 17.5377 13.3164 17.4662C13.3192 17.4227 13.322 17.3792 13.3249 17.3343C13.3273 17.2969 13.3297 17.2595 13.3323 17.2209C13.3387 17.0718 13.3374 16.9225 13.3374 16.7732C12.4516 16.7732 11.5657 16.7732 10.653 16.7732ZM14.0735 16.7732C14.004 17.5833 14.004 17.5833 13.9453 18.3938C13.9419 18.4451 13.9385 18.4964 13.935 18.5492C13.926 18.6857 13.917 18.8223 13.9082 18.9589C13.8988 19.1034 13.8892 19.2479 13.8797 19.3924C13.8639 19.6339 13.8481 19.8754 13.8324 20.1169C13.8142 20.3954 13.796 20.6739 13.7776 20.9524C13.7598 21.2225 13.7421 21.4926 13.7245 21.7627C13.717 21.8769 13.7095 21.9911 13.702 22.1052C13.6916 22.264 13.6812 22.4228 13.6709 22.5815C13.6663 22.6519 13.6663 22.6519 13.6615 22.7236C13.6587 22.7669 13.656 22.8102 13.6531 22.8548C13.6494 22.9109 13.6494 22.9109 13.6457 22.9681C13.6401 23.0865 13.6405 23.2051 13.6405 23.3236C14.1549 23.3236 14.6693 23.3236 15.1992 23.3236C15.3009 22.9138 15.3009 22.9138 15.3858 22.5026C15.3997 22.4268 15.3997 22.4268 15.414 22.3494C15.4237 22.2954 15.4335 22.2414 15.4432 22.1874C15.4539 22.1289 15.4646 22.0705 15.4753 22.0121C15.5039 21.8552 15.5324 21.6983 15.5609 21.5414C15.5907 21.3767 15.6208 21.212 15.6508 21.0473C15.7011 20.7714 15.7513 20.4955 15.8014 20.2195C15.8593 19.9003 15.9174 19.5812 15.9756 19.2621C16.0376 18.9217 16.0996 18.5813 16.1615 18.2409C16.1793 18.1429 16.1972 18.0449 16.215 17.9469C16.243 17.7934 16.2709 17.6398 16.2987 17.4863C16.309 17.4299 16.3192 17.3735 16.3295 17.317C16.3435 17.2403 16.3574 17.1635 16.3713 17.0868C16.3791 17.0437 16.3869 17.0007 16.395 16.9564C16.4137 16.8587 16.4137 16.8587 16.4115 16.7732C15.64 16.7732 14.8684 16.7732 14.0735 16.7732ZM17.1476 16.7732C16.9946 17.5905 16.8421 18.4079 16.6898 19.2253C16.6473 19.4536 16.6048 19.6819 16.5622 19.9102C16.4869 20.3134 16.4118 20.7166 16.337 21.1199C16.3003 21.3177 16.2635 21.5155 16.2265 21.7133C16.1915 21.9009 16.1566 22.0886 16.1219 22.2764C16.109 22.3458 16.0961 22.4153 16.083 22.4847C16.0651 22.5802 16.0475 22.6756 16.0299 22.7711C16.0247 22.7988 16.0194 22.8264 16.014 22.8549C15.9846 23.017 15.9786 23.1563 15.9786 23.3236C16.3929 23.3236 16.8073 23.3236 17.2342 23.3236C17.3108 23.1305 17.381 22.9529 17.4374 22.7565C17.4504 22.7117 17.4634 22.6668 17.4768 22.6206C17.4974 22.5483 17.4974 22.5483 17.5185 22.4745C17.5334 22.423 17.5482 22.3714 17.5635 22.3183C17.6041 22.1775 17.6445 22.0367 17.6849 21.8959C17.7274 21.7476 17.7701 21.5994 17.8128 21.4511C17.8938 21.1699 17.9747 20.8886 18.0554 20.6073C18.1644 20.2277 18.2736 19.8482 18.3828 19.4687C18.4093 19.3766 18.4358 19.2846 18.4623 19.1926C18.4709 19.1627 18.4795 19.1328 18.4884 19.1019C18.5389 18.9264 18.5893 18.7509 18.6397 18.5754C18.6713 18.4655 18.7029 18.3556 18.7345 18.2457C18.7568 18.168 18.7791 18.0903 18.8014 18.0126C18.8646 17.7929 18.9281 17.5733 18.9931 17.3541C19.0034 17.3192 19.0138 17.2843 19.0244 17.2484C19.043 17.1859 19.0617 17.1234 19.0805 17.061C19.1244 16.9193 19.1244 16.9193 19.1393 16.7732C18.482 16.7732 17.8248 16.7732 17.1476 16.7732Z" fill="#7CB184"/>
</svg>
