<svg width="24" height="24" viewBox="0 0 24 24" fill="none" xmlns="http://www.w3.org/2000/svg">
<path fill-rule="evenodd" clip-rule="evenodd" d="M9.44141 3.7832C9.57401 3.7832 9.70119 3.83588 9.79496 3.92965C9.88873 4.02342 9.94141 4.15059 9.94141 4.2832V7.5832C9.94141 7.71581 9.88873 7.84299 9.79496 7.93676C9.70119 8.03052 9.57401 8.0832 9.44141 8.0832C9.3088 8.0832 9.18162 8.03052 9.08785 7.93676C8.99409 7.84299 8.94141 7.71581 8.94141 7.5832V4.2832C8.94141 4.15059 8.99409 4.02342 9.08785 3.92965C9.18162 3.83588 9.3088 3.7832 9.44141 3.7832Z" fill="#7CB184"/>
<path fill-rule="evenodd" clip-rule="evenodd" d="M5.8902 6.95282C6.4552 6.81782 7.0317 6.92032 7.6302 7.22932C8.1177 7.48182 8.4637 7.59732 8.7332 7.65282C9.0022 7.70882 9.2162 7.70982 9.4747 7.70982V8.70982H9.4647C9.2067 8.70982 8.9047 8.70982 8.5307 8.63232C8.1522 8.55382 7.7197 8.40132 7.1707 8.11732C6.7317 7.89082 6.4007 7.85882 6.1227 7.92532C5.8307 7.99532 5.5222 8.19032 5.1667 8.55732C4.3507 9.40132 4.0972 10.2703 4.0087 10.9383C3.9587 11.7603 4.1072 13.3833 4.8427 14.9698C5.0927 15.5098 5.4477 16.2548 5.8807 16.8383C6.0967 17.1293 6.3137 17.3533 6.5222 17.4913C6.7247 17.6248 6.8927 17.6613 7.0452 17.6353C8.6067 17.3663 8.9002 17.3598 9.2047 17.3598H9.7232V18.3598H9.1902C8.9792 18.3598 8.7302 18.3598 7.2152 18.6208C6.7452 18.7018 6.3217 18.5573 5.9712 18.3258C5.6267 18.0983 5.3292 17.7728 5.0777 17.4343C4.5752 16.7578 4.1822 15.9223 3.9357 15.3903C3.1167 13.6243 2.9497 11.8218 3.0117 10.8583L3.0132 10.8423L3.0152 10.8263C3.1212 10.0043 3.4372 8.90682 4.4482 7.86232C4.8707 7.42532 5.3397 7.08432 5.8907 6.95232" fill="#7CB184"/>
<path fill-rule="evenodd" clip-rule="evenodd" d="M7.32122 5.705C8.06922 6.4205 8.47472 7.288 8.47472 7.96C8.47472 8.09261 8.5274 8.21979 8.62117 8.31355C8.71493 8.40732 8.84211 8.46 8.97472 8.46C9.10733 8.46 9.2345 8.40732 9.32827 8.31355C9.42204 8.21979 9.47472 8.09261 9.47472 7.96C9.47472 6.935 8.89072 5.8225 8.01222 4.982C7.12322 4.1325 5.87272 3.5 4.44922 3.5C4.31661 3.5 4.18943 3.55268 4.09567 3.64645C4.0019 3.74021 3.94922 3.86739 3.94922 4C3.94922 4.13261 4.0019 4.25979 4.09567 4.35355C4.18943 4.44732 4.31661 4.5 4.44922 4.5C5.57122 4.5 6.58322 4.9995 7.32072 5.705" fill="#7CB184"/>
<path fill-rule="evenodd" clip-rule="evenodd" d="M4.2855 3.50385C4.41704 3.48744 4.54971 3.52394 4.65435 3.60533C4.75899 3.68671 4.82702 3.80631 4.8435 3.93785C5.0895 5.90285 6.816 6.93785 8.2105 7.49535C8.33363 7.54461 8.43214 7.64077 8.48437 7.76267C8.5366 7.88457 8.53827 8.02222 8.489 8.14535C8.43974 8.26847 8.34358 8.36699 8.22168 8.41922C8.09978 8.47144 7.96213 8.47311 7.839 8.42385C6.4045 7.85035 4.1715 6.62185 3.8515 4.06185C3.8351 3.9303 3.8716 3.79763 3.95298 3.693C4.03437 3.58836 4.15397 3.52032 4.2855 3.50385ZM12.8795 6.95085C12.3035 6.81885 11.7125 6.91785 11.0945 7.22485C10.5845 7.47785 10.221 7.59485 9.936 7.65135C9.651 7.70785 9.425 7.70885 9.156 7.70885C9.02339 7.70885 8.89622 7.76152 8.80245 7.85529C8.70868 7.94906 8.656 8.07624 8.656 8.20885C8.656 8.34145 8.70868 8.46863 8.80245 8.5624C8.89622 8.65617 9.02339 8.70885 9.156 8.70885H9.1655C9.434 8.70885 9.7455 8.70885 10.1305 8.63235C10.521 8.55485 10.9685 8.40335 11.5385 8.12035C12.0005 7.89135 12.3545 7.85635 12.6565 7.92535C12.9695 7.99735 13.295 8.19635 13.665 8.56385C14.523 9.41535 14.7825 10.2898 14.872 10.9558C14.8914 11.0857 14.9612 11.2027 15.0661 11.2816C15.1711 11.3604 15.3029 11.3949 15.433 11.3774C15.5631 11.3599 15.6812 11.292 15.7616 11.1882C15.8421 11.0845 15.8785 10.9532 15.863 10.8228C15.752 9.99635 15.421 8.89785 14.3695 7.85385C13.929 7.41685 13.4445 7.07985 12.8795 6.95085ZM13.352 17.1393C13.3047 17.0938 13.2489 17.058 13.1877 17.0341C13.1266 17.0101 13.0614 16.9984 12.9957 16.9997C12.9301 17.0009 12.8653 17.0151 12.8051 17.0414C12.7449 17.0677 12.6905 17.1055 12.645 17.1528C12.2665 17.5458 11.9485 17.6778 11.6795 17.6338C10.0535 17.3648 9.7495 17.3588 9.437 17.3588C9.30439 17.3588 9.17722 17.4115 9.08345 17.5053C8.98968 17.5991 8.937 17.7262 8.937 17.8588C8.937 17.9915 8.98968 18.1186 9.08345 18.2124C9.17722 18.3062 9.30439 18.3588 9.437 18.3588H9.451C9.6745 18.3588 9.9345 18.3588 11.516 18.6203C12.277 18.7463 12.9085 18.3203 13.3655 17.8463C13.4111 17.799 13.447 17.7432 13.471 17.682C13.495 17.6208 13.5067 17.5555 13.5054 17.4898C13.5042 17.4241 13.49 17.3593 13.4637 17.299C13.4373 17.2388 13.3994 17.1849 13.352 17.1393Z" fill="#7CB184"/>
<path fill-rule="evenodd" clip-rule="evenodd" d="M16.3266 8.05137C15.8251 8.95637 15.6951 9.90587 15.8946 10.5474C15.9141 10.6101 15.9211 10.676 15.9151 10.7414C15.9091 10.8068 15.8903 10.8704 15.8597 10.9285C15.8292 10.9866 15.7875 11.0382 15.737 11.0802C15.6866 11.1222 15.6283 11.1539 15.5656 11.1734C15.5029 11.1929 15.437 11.1998 15.3716 11.1939C15.3062 11.1879 15.2426 11.1691 15.1845 11.1385C15.1263 11.108 15.0748 11.0663 15.0328 11.0158C14.9908 10.9653 14.9591 10.9071 14.9396 10.8444C14.6351 9.86487 14.8631 8.62937 15.4521 7.56637C16.0486 6.49037 17.0551 5.51587 18.4146 5.09287C18.4773 5.07337 18.5432 5.06641 18.6086 5.07239C18.674 5.07837 18.7376 5.09717 18.7957 5.12772C18.8539 5.15827 18.9054 5.19997 18.9474 5.25044C18.9894 5.30091 19.0211 5.35916 19.0406 5.42187C19.0601 5.48458 19.0671 5.55051 19.0611 5.61591C19.0551 5.6813 19.0363 5.74488 19.0057 5.80301C18.9752 5.86114 18.9335 5.91268 18.883 5.9547C18.8326 5.99671 18.7743 6.02837 18.7116 6.04787C17.6401 6.38087 16.8216 7.15887 16.3266 8.05137Z" fill="#7CB184"/>
<path fill-rule="evenodd" clip-rule="evenodd" d="M17.3612 8.69031C16.7772 9.54531 15.9872 10.0868 15.3247 10.1968C15.2591 10.2066 15.1961 10.2293 15.1394 10.2637C15.0827 10.298 15.0333 10.3434 14.9943 10.397C14.9552 10.4506 14.9272 10.5114 14.9119 10.5759C14.8966 10.6405 14.8943 10.7074 14.9051 10.7729C14.9159 10.8383 14.9397 10.9009 14.9749 10.9571C15.0102 11.0133 15.0562 11.0619 15.1105 11.1001C15.1647 11.1383 15.226 11.1653 15.2907 11.1796C15.3555 11.1939 15.4225 11.1952 15.4877 11.1833C16.4992 11.0158 17.5012 10.2578 18.1867 9.25431C18.8807 8.23831 19.3002 6.90131 19.0677 5.49681C19.057 5.432 19.0337 5.36994 18.999 5.31416C18.9643 5.25838 18.9189 5.20998 18.8655 5.17172C18.8122 5.13347 18.7517 5.1061 18.6878 5.09119C18.6238 5.07627 18.5575 5.07411 18.4927 5.08481C18.4279 5.09551 18.3658 5.11887 18.3101 5.15356C18.2543 5.18825 18.2059 5.23359 18.1676 5.28698C18.1294 5.34037 18.102 5.40078 18.0871 5.46475C18.0722 5.52872 18.07 5.595 18.0807 5.65981C18.2642 6.76681 17.9367 7.84731 17.3607 8.68981" fill="#7CB184"/>
<path fill-rule="evenodd" clip-rule="evenodd" d="M15.8906 11.5C15.5591 11.5 15.2412 11.6317 15.0067 11.8661C14.7723 12.1005 14.6406 12.4185 14.6406 12.75C14.6406 13.0815 14.7723 13.3995 15.0067 13.6339C15.2412 13.8683 15.5591 14 15.8906 14C16.2221 14 16.5401 13.8683 16.7745 13.6339C17.0089 13.3995 17.1406 13.0815 17.1406 12.75C17.1406 12.4185 17.0089 12.1005 16.7745 11.8661C16.5401 11.6317 16.2221 11.5 15.8906 11.5ZM13.6406 12.75C13.6406 12.4545 13.6988 12.1619 13.8119 11.889C13.925 11.616 14.0907 11.3679 14.2996 11.159C14.5086 10.9501 14.7566 10.7843 15.0296 10.6713C15.3026 10.5582 15.5952 10.5 15.8906 10.5C16.1861 10.5 16.4787 10.5582 16.7517 10.6713C17.0246 10.7843 17.2727 10.9501 17.4816 11.159C17.6905 11.3679 17.8563 11.616 17.9694 11.889C18.0824 12.1619 18.1406 12.4545 18.1406 12.75C18.1406 13.3467 17.9036 13.919 17.4816 14.341C17.0597 14.7629 16.4874 15 15.8906 15C15.2939 15 14.7216 14.7629 14.2996 14.341C13.8777 13.919 13.6406 13.3467 13.6406 12.75Z" fill="#7CB184"/>
<path fill-rule="evenodd" clip-rule="evenodd" d="M18.9229 9.0443C19.4845 9.24582 19.9431 9.66219 20.1978 10.2018C20.4525 10.7414 20.4824 11.3601 20.2809 11.9218C20.2587 11.9836 20.2246 12.0405 20.1805 12.0891C20.1364 12.1377 20.0831 12.1772 20.0237 12.2052C19.9643 12.2333 19.9 12.2494 19.8344 12.2525C19.7688 12.2557 19.7032 12.246 19.6414 12.2238C19.5796 12.2016 19.5227 12.1675 19.4741 12.1234C19.4255 12.0793 19.386 12.026 19.358 11.9666C19.3299 11.9072 19.3138 11.8429 19.3107 11.7773C19.3075 11.7117 19.3172 11.6461 19.3394 11.5843C19.4515 11.2723 19.435 10.9285 19.2936 10.6286C19.1522 10.3288 18.8974 10.0974 18.5854 9.9853C18.2734 9.87325 17.9296 9.88973 17.6297 10.0311C17.3299 10.1725 17.0985 10.4273 16.9864 10.7393C16.9654 10.8026 16.932 10.8611 16.8881 10.9113C16.8442 10.9615 16.7907 11.0025 16.7307 11.0317C16.6708 11.0609 16.6056 11.0778 16.539 11.0815C16.4724 11.0851 16.4057 11.0754 16.3429 11.0528C16.2801 11.0303 16.2225 10.9955 16.1734 10.9503C16.1243 10.9052 16.0847 10.8507 16.057 10.79C16.0292 10.7294 16.0139 10.6638 16.0119 10.5971C16.01 10.5304 16.0213 10.464 16.0454 10.4018C16.247 9.84024 16.6634 9.38176 17.203 9.12719C17.7427 8.87262 18.3613 8.8428 18.9229 9.0443Z" fill="#7CB184"/>
<path fill-rule="evenodd" clip-rule="evenodd" d="M18.1271 11.5872C18.639 11.4404 19.1864 11.4799 19.6719 11.6986C20.1574 11.9173 20.5497 12.3011 20.7789 12.7817C21.0082 13.2624 21.0595 13.8088 20.9239 14.3237C20.7882 14.8387 20.4744 15.2889 20.0381 15.5942C19.9293 15.6669 19.7963 15.694 19.6678 15.6697C19.5392 15.6455 19.4253 15.5718 19.3504 15.4645C19.2755 15.3571 19.2457 15.2248 19.2674 15.0957C19.289 14.9667 19.3604 14.8513 19.4661 14.7742C19.6037 14.678 19.7205 14.555 19.8096 14.4127C19.8986 14.2703 19.958 14.1115 19.9843 13.9456C20.0106 13.7798 20.0032 13.6104 19.9626 13.4475C19.922 13.2845 19.849 13.1315 19.7479 12.9974C19.6468 12.8633 19.5197 12.751 19.3743 12.6671C19.2289 12.5832 19.068 12.5295 18.9013 12.5091C18.7347 12.4887 18.5656 12.5022 18.4042 12.5486C18.2429 12.595 18.0925 12.6734 17.9621 12.7792C17.9112 12.8207 17.8526 12.8517 17.7896 12.8704C17.7267 12.8892 17.6607 12.8954 17.5954 12.8887C17.53 12.8819 17.4667 12.8624 17.4089 12.8312C17.3511 12.8 17.3001 12.7577 17.2586 12.7067C17.2172 12.6558 17.1862 12.5972 17.1674 12.5342C17.1486 12.4713 17.1424 12.4053 17.1492 12.34C17.1559 12.2746 17.1754 12.2113 17.2067 12.1535C17.2379 12.0957 17.2802 12.0447 17.3311 12.0032C17.5658 11.8125 17.8365 11.671 18.1271 11.5872ZM13.8906 14.4992C13.5591 14.4992 13.2412 14.6309 13.0067 14.8653C12.7723 15.0998 12.6406 15.4177 12.6406 15.7492C12.6406 16.0808 12.7723 16.3987 13.0067 16.6331C13.2412 16.8675 13.5591 16.9992 13.8906 16.9992C14.2221 16.9992 14.5401 16.8675 14.7745 16.6331C15.0089 16.3987 15.1406 16.0808 15.1406 15.7492C15.1406 15.4177 15.0089 15.0998 14.7745 14.8653C14.5401 14.6309 14.2221 14.4992 13.8906 14.4992ZM11.6406 15.7492C11.6406 15.1525 11.8777 14.5802 12.2996 14.1582C12.7216 13.7363 13.2939 13.4992 13.8906 13.4992C14.4874 13.4992 15.0597 13.7363 15.4816 14.1582C15.9036 14.5802 16.1406 15.1525 16.1406 15.7492C16.1406 16.346 15.9036 16.9183 15.4816 17.3402C15.0597 17.7622 14.4874 17.9992 13.8906 17.9992C13.2939 17.9992 12.7216 17.7622 12.2996 17.3402C11.8777 16.9183 11.6406 16.346 11.6406 15.7492Z" fill="#7CB184"/>
<path fill-rule="evenodd" clip-rule="evenodd" d="M17.8906 14.5C17.5591 14.5 17.2412 14.6317 17.0067 14.8661C16.7723 15.1005 16.6406 15.4185 16.6406 15.75C16.6406 16.0815 16.7723 16.3995 17.0067 16.6339C17.2412 16.8683 17.5591 17 17.8906 17C18.2221 17 18.5401 16.8683 18.7745 16.6339C19.0089 16.3995 19.1406 16.0815 19.1406 15.75C19.1406 15.4185 19.0089 15.1005 18.7745 14.8661C18.5401 14.6317 18.2221 14.5 17.8906 14.5ZM15.6406 15.75C15.6406 15.1533 15.8777 14.581 16.2996 14.159C16.7216 13.7371 17.2939 13.5 17.8906 13.5C18.4874 13.5 19.0597 13.7371 19.4816 14.159C19.9036 14.581 20.1406 15.1533 20.1406 15.75C20.1406 16.3467 19.9036 16.919 19.4816 17.341C19.0597 17.7629 18.4874 18 17.8906 18C17.2939 18 16.7216 17.7629 16.2996 17.341C15.8777 16.919 15.6406 16.3467 15.6406 15.75Z" fill="#7CB184"/>
<path fill-rule="evenodd" clip-rule="evenodd" d="M15.8906 17.5C15.5591 17.5 15.2412 17.6317 15.0067 17.8661C14.7723 18.1005 14.6406 18.4185 14.6406 18.75C14.6406 19.0815 14.7723 19.3995 15.0067 19.6339C15.2412 19.8683 15.5591 20 15.8906 20C16.2221 20 16.5401 19.8683 16.7745 19.6339C17.0089 19.3995 17.1406 19.0815 17.1406 18.75C17.1406 18.4185 17.0089 18.1005 16.7745 17.8661C16.5401 17.6317 16.2221 17.5 15.8906 17.5ZM13.6406 18.75C13.6406 18.4545 13.6988 18.1619 13.8119 17.889C13.925 17.616 14.0907 17.3679 14.2996 17.159C14.5086 16.9501 14.7566 16.7843 15.0296 16.6713C15.3026 16.5582 15.5952 16.5 15.8906 16.5C16.1861 16.5 16.4787 16.5582 16.7517 16.6713C17.0246 16.7843 17.2727 16.9501 17.4816 17.159C17.6905 17.3679 17.8563 17.616 17.9694 17.889C18.0824 18.1619 18.1406 18.4545 18.1406 18.75C18.1406 19.3467 17.9036 19.919 17.4816 20.341C17.0597 20.7629 16.4874 21 15.8906 21C15.2939 21 14.7216 20.7629 14.2996 20.341C13.8777 19.919 13.6406 19.3467 13.6406 18.75Z" fill="#7CB184"/>
<path fill-rule="evenodd" clip-rule="evenodd" d="M18.9155 16.9825C18.9376 16.9206 18.9716 16.8637 19.0156 16.815C19.0597 16.7663 19.1129 16.7267 19.1722 16.6986C19.2316 16.6705 19.2959 16.6543 19.3615 16.651C19.4271 16.6477 19.4927 16.6574 19.5545 16.6795C19.8717 16.7927 20.1594 16.9758 20.3965 17.2151C20.6335 17.4544 20.8138 17.7438 20.924 18.0621C21.0342 18.3804 21.0716 18.7193 21.0333 19.0539C20.9951 19.3886 20.8822 19.7104 20.703 19.9955C20.5238 20.2807 20.2829 20.522 19.998 20.7017C19.7131 20.8813 19.3914 20.9947 19.0569 21.0335C18.7223 21.0723 18.3833 21.0354 18.0648 20.9257C17.7464 20.816 17.4567 20.6361 17.217 20.3995C17.169 20.3536 17.1307 20.2987 17.1042 20.2379C17.0777 20.1771 17.0635 20.1116 17.0626 20.0453C17.0616 19.9789 17.0738 19.9131 17.0986 19.8515C17.1233 19.79 17.1601 19.734 17.2067 19.6867C17.2533 19.6395 17.3089 19.6021 17.3701 19.5765C17.4313 19.551 17.497 19.5379 17.5634 19.538C17.6297 19.5382 17.6954 19.5515 17.7565 19.5772C17.8176 19.603 17.8731 19.6406 17.9195 19.688C18.0526 19.8194 18.2136 19.9194 18.3905 19.9803C18.5674 20.0413 18.7557 20.0618 18.9416 20.0403C19.1274 20.0187 19.3061 19.9558 19.4644 19.856C19.6227 19.7562 19.7565 19.6222 19.8561 19.4638C19.9557 19.3054 20.0184 19.1266 20.0397 18.9407C20.061 18.7549 20.0403 18.5666 19.9791 18.3897C19.9179 18.2129 19.8178 18.0521 19.6861 17.9191C19.5545 17.7862 19.3947 17.6844 19.2185 17.6215C19.1566 17.5994 19.0996 17.5654 19.0509 17.5213C19.0021 17.4772 18.9626 17.4239 18.9344 17.3645C18.9063 17.3051 18.8901 17.2408 18.8869 17.1751C18.8836 17.1095 18.8934 17.0444 18.9155 16.9825Z" fill="#7CB184"/>
</svg>
