<svg width="22" height="23" viewBox="0 0 22 23" fill="none" xmlns="http://www.w3.org/2000/svg">
<path d="M8.52564 5.70713C9.75214 4.03513 12.2491 4.03513 13.4756 5.70713L14.1796 6.66596C15.7003 8.73966 16.6527 11.1747 16.9425 13.7298C17.0746 14.8997 16.7878 16.0786 16.1329 17.057C15.4781 18.0355 14.4976 18.7501 13.3656 19.074L12.6616 19.2756C11.576 19.5856 10.4253 19.5856 9.33964 19.2756L8.63564 19.074C7.5037 18.7501 6.52321 18.0355 5.86835 17.057C5.21349 16.0786 4.92666 14.8997 5.05881 13.7298C5.3489 11.1746 6.30161 8.73957 7.82256 6.66596L8.52564 5.70713Z" stroke="#7CB184"/>
</svg>
