<svg xmlns="http://www.w3.org/2000/svg" width="64" height="64" style="shape-rendering:geometricPrecision;text-rendering:geometricPrecision;image-rendering:optimizeQuality;fill-rule:evenodd;clip-rule:evenodd"><path fill="#7bb185" d="M40.5 1.5Q61.818.06 56 20.5q-3.428 5.088-9.5 5a428 428 0 0 1-1.5 27q-.621.685-1.5 1-1.32-14.49.5-29a55 55 0 0 0 9-5Q57.76-.74 38.5 7a63.6 63.6 0 0 1 13 4q3.228 7.31-5 8a31.3 31.3 0 0 1-10 1.5v34q4.048-.05 7.5 2 1.298 3.582-2.5 4.5-12 1-24 0a9.5 9.5 0 0 1-2.5-1.5 251.8 251.8 0 0 1-8-48A27.2 27.2 0 0 1 16.5 8l18-1a45.5 45.5 0 0 1 6-5.5m-12 8q2.426.807 5 1v7a6.85 6.85 0 0 0-4 1 202 202 0 0 0-17-2v3q10.447 1.26 21 1v37q-2.337 2.202-17 0a996 996 0 0 1-6.5-44q9.135-3.288 18.5-4m8 1q26 3.5 0 7z" style="opacity:.828"/></svg>