<svg width="18" height="18" viewBox="0 0 18 18" fill="none" xmlns="http://www.w3.org/2000/svg">
<g clip-path="url(#clip0_2190_3626)">
<path d="M10.4429 1.51242C10.4726 1.51846 10.5022 1.52449 10.5327 1.53071C11.6635 1.76353 13.2597 2.28245 13.9586 3.27024C13.9836 3.40923 13.9974 3.49439 13.9167 3.6129C13.7187 3.82982 13.512 4.03763 13.3039 4.24472C13.2648 4.28373 13.2258 4.32273 13.1867 4.36175C13.0848 4.46355 12.9828 4.56524 12.8807 4.6669C12.7762 4.77102 12.6719 4.87523 12.5675 4.97944C12.3633 5.18324 12.159 5.38693 11.9546 5.59055C12.0132 5.71309 12.084 5.81029 12.17 5.91574C12.1954 5.94711 12.2209 5.97847 12.2472 6.01078C12.2666 6.03452 12.2861 6.05827 12.3062 6.08274C12.4442 6.02685 12.5367 5.93183 12.6392 5.8275C12.6579 5.80869 12.6767 5.78988 12.6961 5.77049C12.7579 5.70843 12.8195 5.64612 12.8811 5.58382C12.924 5.54064 12.967 5.49747 13.01 5.45432C13.1231 5.3408 13.2359 5.22708 13.3487 5.11331C13.5295 4.93102 13.7105 4.74898 13.8916 4.56705C13.9549 4.50339 14.0181 4.43961 14.0813 4.37582C14.1199 4.33694 14.1585 4.29807 14.1972 4.2592C14.2148 4.24136 14.2324 4.22352 14.2505 4.20513C14.3641 4.09121 14.4162 4.04844 14.5782 4.0261C14.7394 4.03101 14.8202 4.08676 14.9339 4.19776C15.2789 4.59774 15.5448 5.05269 15.7867 5.52024C15.799 5.54357 15.8113 5.5669 15.824 5.59094C16.2957 6.49351 16.5939 7.55968 16.6037 8.58075C16.604 8.61066 16.6043 8.64056 16.6047 8.67137C16.6109 9.34346 16.6063 9.99467 16.4546 10.653C16.4463 10.6892 16.4381 10.7253 16.4295 10.7625C16.0903 12.1829 15.3732 13.3597 14.3804 14.4148C14.3588 14.4379 14.3371 14.4611 14.3148 14.4849C12.9966 15.8505 11.0196 16.5864 9.14956 16.6285C7.3636 16.647 5.46953 16.0749 4.13128 14.855C4.0369 14.7572 4.02599 14.6616 4.02814 14.5269C4.04832 14.4319 4.08227 14.3917 4.1479 14.3206C4.17023 14.2963 4.19255 14.2719 4.21555 14.2469C4.34924 14.1075 4.4851 13.9705 4.62237 13.8347C4.65144 13.8058 4.68052 13.7769 4.71047 13.7471C4.78136 13.6766 4.85234 13.6062 4.9234 13.5359C4.86486 13.4133 4.79409 13.3161 4.70807 13.2107C4.66986 13.1636 4.66986 13.1636 4.63089 13.1156C4.6114 13.0919 4.59191 13.0681 4.57184 13.0437C4.43506 13.0991 4.34413 13.1926 4.24307 13.2965C4.22549 13.3143 4.20791 13.332 4.18979 13.3503C4.13386 13.4069 4.07818 13.4637 4.02252 13.5205C3.96658 13.5774 3.91059 13.6343 3.85449 13.691C3.81965 13.7263 3.7849 13.7616 3.75026 13.7971C3.63764 13.9114 3.5865 13.953 3.42486 13.9753C3.26366 13.9704 3.18285 13.9147 3.06918 13.8037C2.72412 13.4037 2.45826 12.9487 2.21637 12.4812C2.20406 12.4578 2.19175 12.4345 2.17906 12.4105C1.83239 11.7471 1.59422 11.0054 1.47809 10.2663C1.47198 10.2296 1.46587 10.1929 1.45958 10.155C1.40234 9.77779 1.3937 9.40579 1.39459 9.02488C1.39462 8.99241 1.39465 8.95995 1.39468 8.92651C1.40113 6.86125 2.22056 5.0766 3.62262 3.58664C3.64428 3.56349 3.66594 3.54033 3.68826 3.51647C4.29719 2.88569 5.08238 2.40715 5.87262 2.03977C5.89533 2.02917 5.91804 2.01857 5.94144 2.00765C7.2978 1.38594 8.97972 1.19501 10.4429 1.51242ZM7.29645 2.32981C7.2694 2.33716 7.24235 2.34451 7.21449 2.35208C6.695 2.49777 6.20666 2.69858 5.73199 2.95383C5.71122 2.96474 5.69045 2.97564 5.66904 2.98688C5.20346 3.23219 4.78433 3.54651 4.39962 3.90483C4.3335 3.96617 4.26576 4.0238 4.1961 4.08103C4.06032 4.19692 3.9481 4.32907 3.83355 4.46555C3.80673 4.49632 3.7799 4.52709 3.75226 4.5588C2.89898 5.55206 2.38435 6.76249 2.18121 8.05149C2.17516 8.08842 2.16912 8.12535 2.16289 8.1634C2.14463 8.30896 2.13977 8.45034 2.13891 8.59682C2.13854 8.63911 2.13854 8.63911 2.13817 8.68226C2.13755 8.77303 2.13733 8.86379 2.13727 8.95456C2.13724 8.9855 2.13722 9.01644 2.13719 9.04831C2.13774 9.49745 2.14931 9.93253 2.25152 10.3718C2.25756 10.3989 2.26359 10.426 2.26981 10.4539C2.44868 11.2408 2.75203 11.9896 3.17437 12.6767C3.20114 12.7211 3.20114 12.7211 3.22844 12.7663C3.24558 12.7933 3.26273 12.8204 3.28039 12.8483C3.29554 12.8724 3.31069 12.8966 3.3263 12.9215C3.34287 12.9386 3.35945 12.9557 3.37652 12.9734C3.51439 12.9878 3.51439 12.9878 3.5912 12.9153C3.61698 12.8888 3.64275 12.8622 3.66931 12.8349C3.69741 12.8064 3.7255 12.7778 3.75445 12.7484C3.78346 12.7182 3.81246 12.6881 3.84234 12.657C3.88666 12.6117 3.88666 12.6117 3.93188 12.5655C4.0049 12.4908 4.07757 12.4158 4.14996 12.3405C4.13829 12.3117 4.13829 12.3117 4.12637 12.2823C3.67613 11.1605 3.48772 9.99917 3.9588 8.85129C4.42973 7.76213 5.11594 6.81434 5.87262 5.90696C5.8897 5.88639 5.90679 5.86582 5.92439 5.84463C6.12108 5.60821 6.32274 5.37747 6.53084 5.15096C6.60204 5.07292 6.67158 4.99381 6.74054 4.91379C6.83548 4.8044 6.93566 4.70243 7.03904 4.60105C7.09764 4.5414 7.15153 4.48015 7.2054 4.41625C7.37544 4.22075 7.55937 4.03916 7.74283 3.85638C7.80389 3.79551 7.86476 3.73445 7.92562 3.67337C8.10872 3.49016 8.2921 3.30997 8.48953 3.14203C8.53535 3.10237 8.57862 3.05978 8.62112 3.01659C8.73668 2.89917 8.8303 2.82963 8.99713 2.81321C9.21493 2.83166 9.32861 2.95902 9.47497 3.11032C9.53442 3.17038 9.59583 3.22777 9.65796 3.28507C9.95067 3.55516 10.2356 3.83278 10.5176 4.11399C10.5484 4.14463 10.5793 4.17528 10.611 4.20686C10.7849 4.38119 10.9509 4.55963 11.1109 4.7468C11.1628 4.80547 11.2148 4.86408 11.2669 4.92258C11.2908 4.94941 11.3147 4.97624 11.3393 5.00388C11.3654 5.03325 11.3654 5.03325 11.3921 5.06321C11.5931 4.89617 11.7781 4.71705 11.9622 4.53174C11.9923 4.50161 12.0224 4.47147 12.0534 4.44043C12.1487 4.34488 12.2439 4.24921 12.3392 4.15354C12.4041 4.08844 12.469 4.02334 12.534 3.95826C12.6925 3.79932 12.851 3.64029 13.0093 3.48117C12.9676 3.35595 12.9393 3.34335 12.8303 3.27532C12.8002 3.25648 12.7701 3.23764 12.7391 3.21822C12.6901 3.1885 12.6901 3.1885 12.6402 3.15818C12.6065 3.13768 12.5729 3.11719 12.5382 3.09607C11.7451 2.62015 10.868 2.30914 9.95074 2.18039C9.90739 2.17426 9.86405 2.16813 9.81939 2.16182C9.66791 2.14319 9.51808 2.13896 9.36558 2.1381C9.32291 2.1378 9.32291 2.1378 9.27937 2.13749C9.2193 2.13716 9.15924 2.13693 9.09917 2.13679C9.00969 2.13645 8.92023 2.13536 8.83075 2.13425C8.31021 2.13088 7.79918 2.19054 7.29645 2.32981ZM8.72467 3.91184C8.7002 3.935 8.67573 3.95816 8.65052 3.98202C8.44184 4.18076 8.23669 4.38304 8.03253 4.5864C8.00328 4.61548 7.97403 4.64457 7.9439 4.67453C7.79488 4.82394 7.65153 4.97592 7.51395 5.13591C7.41133 5.25344 7.30291 5.36548 7.19537 5.47849C7.01865 5.66561 6.84909 5.85525 6.68876 6.05678C6.63245 6.1264 6.57559 6.19418 6.51655 6.2614C5.928 6.93159 5.4016 7.66389 4.95855 8.43821C4.94 8.4702 4.94 8.4702 4.92106 8.50284C4.43331 9.34943 4.24823 10.2419 4.49232 11.2039C4.6996 11.9447 5.10326 12.5576 5.62652 13.114C5.64542 13.1352 5.66432 13.1563 5.68379 13.1781C6.47121 14.0247 7.71843 14.4244 8.8421 14.4821C9.74617 14.5127 10.6007 14.2808 11.3921 13.8523C11.4243 13.8349 11.4565 13.8176 11.4897 13.7997C12.4688 13.2404 13.2043 12.303 13.5015 11.2155C13.5127 11.1758 13.5239 11.1361 13.5354 11.0951C13.7871 10.0525 13.4738 9.13164 12.9393 8.24006C12.3362 7.26006 11.6018 6.37056 10.8296 5.52024C10.8061 5.49386 10.7826 5.46749 10.7584 5.44031C10.3893 5.0266 10.0082 4.62523 9.61676 4.23264C9.57265 4.18829 9.57265 4.18829 9.52766 4.14305C9.15346 3.70284 9.15346 3.70284 8.72467 3.91184ZM14.4472 5.05829C14.4168 5.0889 14.3863 5.1195 14.3549 5.15103C14.3297 5.17623 14.3297 5.17623 14.304 5.20194C14.2483 5.25771 14.1928 5.31371 14.1374 5.36972C14.0989 5.40836 14.0603 5.44698 14.0218 5.48559C13.9203 5.58739 13.8189 5.6894 13.7177 5.79145C13.6143 5.89549 13.5108 5.99934 13.4073 6.1032C13.2041 6.30712 13.0012 6.51127 12.7984 6.71555C12.8366 6.77649 12.875 6.83736 12.9133 6.8982C12.9347 6.9321 12.956 6.96601 12.978 7.00094C13.0399 7.09519 13.1052 7.1845 13.1741 7.27365C13.9633 8.34734 14.4819 9.61498 14.2847 10.9605C14.2548 11.1299 14.2153 11.2959 14.1695 11.4616C14.1631 11.4853 14.1567 11.5089 14.1501 11.5333C13.807 12.7625 12.9188 13.8125 11.8206 14.4389C11.3978 14.6713 10.9702 14.8616 10.5045 14.9905C10.4742 14.9988 10.4439 15.0072 10.4126 15.0159C9.94742 15.1371 9.48824 15.1663 9.01031 15.164C8.98239 15.164 8.95446 15.1639 8.92569 15.1638C8.51959 15.1623 8.13145 15.1467 7.7359 15.0476C7.71071 15.0417 7.68553 15.0359 7.65958 15.0299C6.89905 14.8523 6.18089 14.4951 5.55621 14.028C5.40416 14.0864 5.30681 14.1993 5.19586 14.3137C5.17637 14.3335 5.15688 14.3533 5.13681 14.3737C5.08895 14.4224 5.04131 14.4713 4.99371 14.5202C5.04332 14.6691 5.15101 14.713 5.27936 14.7905C5.30479 14.806 5.33023 14.8215 5.35644 14.8375C5.43444 14.8846 5.5128 14.9311 5.59137 14.9773C5.61326 14.9902 5.63516 15.0032 5.65771 15.0165C6.03819 15.2388 6.44152 15.3954 6.85699 15.5398C6.88264 15.5487 6.90828 15.5576 6.9347 15.5668C8.60878 16.1359 10.4847 15.9368 12.0627 15.1752C12.6007 14.9045 13.0832 14.5634 13.5367 14.1687C13.5569 14.1511 13.577 14.1336 13.5978 14.1155C13.8161 13.9238 14.021 13.726 14.2046 13.5007C14.2363 13.4633 14.268 13.4258 14.2997 13.3884C15.1188 12.4069 15.6235 11.2086 15.8218 9.94992C15.8279 9.91289 15.8339 9.87586 15.8401 9.8377C15.8582 9.69457 15.8639 9.55356 15.8654 9.40953C15.8657 9.38173 15.8661 9.35392 15.8664 9.32527C15.8725 8.7012 15.865 8.09894 15.7164 7.48899C15.7051 7.44193 15.7051 7.44193 15.6935 7.39392C15.4921 6.58015 15.1633 5.62657 14.5914 4.99289C14.5134 4.98512 14.5134 4.98512 14.4472 5.05829Z" fill="#7CB184"/>
<path d="M8.55541 -0.00804579C8.60056 -0.00841569 8.60056 -0.00841569 8.64662 -0.00879306C8.74315 -0.00940451 8.83969 -0.0096316 8.93623 -0.00969374C8.98578 -0.00972932 8.98578 -0.00972932 9.03633 -0.00976562C9.5351 -0.00919664 10.0211 0.00684161 10.5117 0.104564C10.5435 0.110784 10.5753 0.117004 10.6081 0.123413C10.8355 0.169069 11.0606 0.222075 11.2851 0.280345C11.3289 0.291681 11.3289 0.291681 11.3736 0.303245C12.7532 0.669129 14.0529 1.39511 15.0926 2.37173C15.1694 2.44328 15.2475 2.5114 15.3281 2.57869C16.6997 3.77421 17.5666 5.62361 17.8945 7.38191C17.9002 7.4104 17.9059 7.43889 17.9118 7.46824C18.1014 8.44592 18.0945 9.60598 17.8945 10.5811C17.8837 10.6352 17.8837 10.6352 17.8727 10.6903C17.4852 12.5949 16.5686 14.2771 15.1523 15.6085C15.0446 15.6623 14.9548 15.6517 14.8359 15.6436C14.7366 15.5995 14.679 15.5633 14.614 15.4766C14.5787 15.3613 14.5774 15.2716 14.5898 15.1514C14.6897 14.9768 14.8172 14.8491 14.9611 14.712C15.495 14.1894 15.9261 13.559 16.2773 12.9014C16.2887 12.8803 16.3002 12.8591 16.312 12.8373C17.3267 10.9459 17.516 8.64923 16.9049 6.59999C16.6499 5.77309 16.2847 4.99603 15.7851 4.28816C15.7604 4.25286 15.7604 4.25286 15.7352 4.21685C15.4917 3.87233 15.2228 3.55972 14.9287 3.25762C14.8757 3.20316 14.8234 3.14816 14.7712 3.09298C14.5303 2.84364 14.2695 2.63148 13.9921 2.42488C13.9719 2.40969 13.9516 2.3945 13.9307 2.37885C12.5041 1.31596 10.8005 0.755371 9.02412 0.759349C8.99182 0.759368 8.95953 0.759388 8.92626 0.759407C7.26847 0.7639 5.64837 1.25445 4.28901 2.21394C4.25371 2.23866 4.25371 2.23866 4.2177 2.26388C3.87318 2.50731 3.56057 2.77621 3.25847 3.07034C3.20401 3.1233 3.14901 3.17563 3.09383 3.22784C2.84449 3.4687 2.63233 3.72958 2.42573 4.00691C2.41054 4.02718 2.39535 4.04745 2.37971 4.06833C1.31681 5.49492 0.756222 7.19851 0.7602 8.97493C0.760219 9.00722 0.760239 9.03951 0.760258 9.07279C0.766295 11.3003 1.67265 13.3425 3.23652 14.9163C4.44759 16.1169 6.02693 16.8666 7.69916 17.1553C7.72357 17.1597 7.74797 17.1641 7.77312 17.1686C9.1415 17.4084 10.662 17.2344 11.943 16.7048C12.1193 16.6342 12.255 16.6137 12.4453 16.628C12.5804 16.6867 12.6377 16.7384 12.6914 16.8741C12.6955 16.9521 12.6955 16.9521 12.687 17.0323C12.6847 17.0588 12.6824 17.0852 12.6801 17.1125C12.6481 17.2169 12.5973 17.2593 12.5156 17.3311C12.4323 17.3728 12.4323 17.3728 12.3392 17.4067C12.3044 17.4194 12.2695 17.4322 12.2336 17.4453C12.1961 17.4584 12.1587 17.4715 12.1201 17.4849C12.0811 17.4987 12.0421 17.5125 12.002 17.5266C11.3906 17.7376 10.7662 17.8817 10.1249 17.9639C10.1013 17.967 10.0777 17.9701 10.0533 17.9732C9.85763 17.9969 9.66472 18.0052 9.46769 18.0062C9.43598 18.0065 9.40427 18.0067 9.3716 18.007C9.26969 18.0076 9.16778 18.0078 9.06586 18.0079C9.03106 18.0079 8.99626 18.0079 8.96041 18.008C8.45021 18.0074 7.95515 17.9913 7.45307 17.8936C7.40661 17.8854 7.40661 17.8854 7.35921 17.877C5.83243 17.6056 4.38145 16.9282 3.19917 15.9249C3.17415 15.9038 3.14913 15.8826 3.12336 15.8609C2.63644 15.4357 2.16921 14.9752 1.79292 14.4483C1.77718 14.4266 1.76145 14.4048 1.74524 14.3824C0.611734 12.8058 -0.0283064 10.9566 -0.0154345 9.01008C-0.0152566 8.95735 -0.0152566 8.95735 -0.0150751 8.90355C-0.0123239 8.33814 0.0198004 7.79537 0.140571 7.24128C0.15302 7.18202 0.15302 7.18202 0.16572 7.12155C0.342007 6.30035 0.622175 5.52035 1.01948 4.78035C1.03838 4.74296 1.05727 4.70557 1.07674 4.66705C1.62012 3.6104 2.46411 2.61427 3.4101 1.89753C3.42867 1.88312 3.44724 1.86871 3.46637 1.85386C4.00312 1.438 4.58818 1.0945 5.20307 0.807689C5.22514 0.797243 5.2472 0.786797 5.26993 0.776035C6.28314 0.29966 7.43214 -0.00182777 8.55541 -0.00804579Z" fill="#7CB184"/>
<path d="M8.81144 5.61181C9.10964 5.79012 9.30596 6.02275 9.40404 6.3587C9.42105 6.4384 9.42527 6.51069 9.4263 6.59214C9.42698 6.63882 9.42698 6.63882 9.42767 6.68644C9.42793 6.71987 9.42819 6.75331 9.42846 6.78776C9.42874 6.82254 9.42902 6.85731 9.42932 6.89315C9.4298 6.96682 9.43018 7.04049 9.43046 7.11416C9.43086 7.189 9.43158 7.26383 9.43262 7.33866C9.43413 7.44727 9.43469 7.55585 9.43505 7.66446C9.43566 7.6974 9.43628 7.73034 9.43691 7.76427C9.43568 8.14753 9.31135 8.44075 9.04668 8.71544C8.786 8.94574 8.51227 8.97821 8.17588 8.97472C7.86239 8.95097 7.62573 8.80848 7.41617 8.57839C7.20655 8.30262 7.15904 8.04948 7.15827 7.70882C7.15804 7.6725 7.1578 7.63618 7.15756 7.59875C7.1572 7.52204 7.15704 7.44533 7.15705 7.36862C7.1569 7.25212 7.15562 7.13566 7.15429 7.01916C7.15408 6.94436 7.15394 6.86956 7.15387 6.79476C7.15337 6.76032 7.15286 6.72589 7.15234 6.69041C7.15456 6.35081 7.25532 6.07534 7.4891 5.82755C7.85027 5.49861 8.36114 5.39999 8.81144 5.61181ZM7.94352 6.43386C7.89722 6.57275 7.90195 6.70621 7.90122 6.85106C7.90102 6.88171 7.90082 6.91236 7.90061 6.94393C7.90028 7.00877 7.90005 7.07361 7.89992 7.13844C7.89957 7.23744 7.89848 7.33641 7.89737 7.4354C7.89714 7.49843 7.89696 7.56147 7.89683 7.6245C7.89639 7.65402 7.89596 7.68355 7.89551 7.71396C7.89628 7.91629 7.93213 8.0336 8.07316 8.18508C8.19272 8.24648 8.30582 8.25033 8.4357 8.22683C8.56055 8.15083 8.63167 8.08201 8.6818 7.94558C8.69293 7.84097 8.69333 7.73677 8.69361 7.63164C8.69384 7.60113 8.69408 7.57062 8.69432 7.53918C8.69467 7.4747 8.69484 7.41022 8.69483 7.34574C8.69498 7.24743 8.69626 7.14918 8.69759 7.05088C8.6978 6.98812 8.69794 6.92536 8.698 6.8626C8.69851 6.83337 8.69901 6.80414 8.69953 6.77402C8.69806 6.58554 8.66724 6.47733 8.54117 6.32839C8.30359 6.17 8.12263 6.24601 7.94352 6.43386Z" fill="#7CB184"/>
<path d="M9.05395 9.43771C9.09148 9.43764 9.09148 9.43764 9.12976 9.43757C9.24953 9.46651 9.32569 9.52314 9.42309 9.59811C9.48002 9.69324 9.48002 9.69324 9.5243 9.8063C9.53697 9.83797 9.53697 9.83797 9.54989 9.87027C9.57875 9.94332 9.60645 10.0168 9.63403 10.0903C9.64981 10.1317 9.64981 10.1317 9.66591 10.174C9.74989 10.3945 9.83165 10.6159 9.91308 10.8374C9.94907 10.935 9.9851 11.0327 10.0212 11.1303C10.0449 11.1944 10.0685 11.2585 10.092 11.3226C10.1486 11.476 10.2067 11.6285 10.2691 11.7796C10.2805 11.8078 10.292 11.836 10.3039 11.865C10.3253 11.9172 10.3471 11.9692 10.3695 12.0209C10.4412 12.1963 10.4703 12.3619 10.4426 12.5512C10.3796 12.6521 10.3378 12.7091 10.2317 12.7622C9.93895 12.7763 9.93895 12.7763 9.80981 12.6919C9.76779 12.6296 9.76779 12.6296 9.7351 12.5578C9.71784 12.5203 9.71784 12.5203 9.70022 12.482C9.68998 12.4585 9.67974 12.4349 9.66919 12.4106C9.65468 12.378 9.64018 12.3453 9.62524 12.3117C9.59887 12.2348 9.59887 12.2348 9.59887 12.1294C9.25083 12.1294 8.90278 12.1294 8.54419 12.1294C8.50938 12.2338 8.47458 12.3382 8.43872 12.4458C8.33209 12.6961 8.33209 12.6961 8.19262 12.7622C8.02531 12.7904 7.91382 12.7872 7.77075 12.6919C7.68417 12.562 7.65775 12.4588 7.66528 12.3051C7.70504 12.1497 7.7633 12.0028 7.82238 11.8539C7.83924 11.8101 7.85604 11.7663 7.87279 11.7225C7.917 11.6073 7.96195 11.4923 8.00706 11.3775C8.05197 11.2628 8.09618 11.1478 8.14044 11.0328C8.20841 10.8564 8.27707 10.6802 8.34616 10.5042C8.40312 10.3588 8.45856 10.213 8.5115 10.0661C8.52224 10.0368 8.53299 10.0075 8.54405 9.97728C8.56302 9.92527 8.58151 9.87308 8.59935 9.82068C8.67452 9.61686 8.81712 9.43041 9.05395 9.43771ZM9.03637 10.7934C8.96676 10.9906 8.89716 11.1879 8.82544 11.3911C8.97626 11.3911 9.12708 11.3911 9.28247 11.3911C9.25714 11.2391 9.23478 11.1316 9.1792 10.9934C9.16728 10.9631 9.15536 10.9327 9.14308 10.9015C9.11298 10.8229 9.11298 10.8229 9.03637 10.7934Z" fill="#7CB184"/>
<path d="M6.43207 9.44907C6.47335 9.44877 6.47335 9.44877 6.51548 9.44846C6.57369 9.44813 6.63191 9.4479 6.69012 9.44776C6.77894 9.44742 6.86772 9.44633 6.95653 9.44522C7.01315 9.44499 7.06978 9.44481 7.1264 9.44467C7.16607 9.44402 7.16607 9.44402 7.20654 9.44336C7.36534 9.44403 7.46587 9.46429 7.5925 9.56168C7.68272 9.68198 7.67562 9.80237 7.66281 9.9484C7.60313 10.0827 7.55232 10.1412 7.41672 10.1945C7.32652 10.2025 7.32652 10.2025 7.2261 10.2014C7.17206 10.201 7.17206 10.201 7.11693 10.2007C7.07954 10.2001 7.04215 10.1995 7.00363 10.1989C6.94673 10.1984 6.94673 10.1984 6.88868 10.1979C6.79516 10.1971 6.70164 10.1958 6.60812 10.1945C6.60812 10.3685 6.60812 10.5425 6.60812 10.7218C6.65897 10.7198 6.70982 10.7178 6.7622 10.7157C6.82949 10.714 6.89679 10.7124 6.96408 10.7108C6.99752 10.7094 7.03097 10.7079 7.06543 10.7064C7.34529 10.7015 7.34529 10.7015 7.47329 10.8018C7.57162 10.9139 7.59301 10.9652 7.60087 11.1087C7.58644 11.2296 7.53073 11.3003 7.45187 11.3898C7.34618 11.4557 7.26732 11.4686 7.1437 11.467C7.11243 11.4668 7.08117 11.4665 7.04895 11.4663C7.01659 11.4657 6.98423 11.4651 6.95089 11.4645C6.91799 11.4642 6.88509 11.4639 6.85119 11.4635C6.77016 11.4627 6.68915 11.4616 6.60812 11.4601C6.60886 11.4922 6.60959 11.5243 6.61035 11.5574C6.61276 11.6769 6.61452 11.7965 6.61585 11.9161C6.61655 11.9678 6.61751 12.0194 6.61873 12.0711C6.62044 12.1455 6.62124 12.2199 6.62185 12.2944C6.62259 12.3391 6.62333 12.3839 6.62409 12.43C6.60542 12.5703 6.56695 12.627 6.4675 12.7257C6.32206 12.7799 6.18961 12.7773 6.04782 12.717C5.97531 12.6554 5.97531 12.6554 5.905 12.55C5.89781 12.4575 5.89467 12.3687 5.89478 12.2761C5.89455 12.2483 5.89431 12.2204 5.89407 12.1917C5.8934 12.0996 5.89326 12.0074 5.89319 11.9152C5.89296 11.8512 5.89272 11.7871 5.89248 11.723C5.89206 11.5887 5.89193 11.4543 5.89197 11.32C5.89197 11.1479 5.89101 10.9758 5.8898 10.8037C5.88902 10.6714 5.88888 10.5391 5.88892 10.4067C5.88883 10.3433 5.88852 10.2798 5.88798 10.2164C5.88729 10.1276 5.88749 10.0389 5.88792 9.95006C5.88752 9.9239 5.88713 9.89775 5.88672 9.87079C5.88825 9.74407 5.90189 9.6721 5.96978 9.56377C6.10628 9.43345 6.25396 9.45007 6.43207 9.44907Z" fill="#7CB184"/>
<path d="M10.6768 9.45006C10.7108 9.44961 10.7447 9.44916 10.7796 9.4487C10.8348 9.44831 10.8348 9.44831 10.891 9.44791C10.9287 9.44763 10.9665 9.44734 11.0053 9.44705C11.0853 9.44656 11.1652 9.44619 11.2452 9.44591C11.3674 9.44531 11.4896 9.44376 11.6118 9.44221C11.6894 9.44185 11.767 9.44156 11.8446 9.44132C11.8812 9.4407 11.9177 9.44009 11.9554 9.43945C12.2097 9.44022 12.2097 9.44022 12.3463 9.52314C12.4569 9.64748 12.4609 9.74228 12.4596 9.90412C12.4396 10.0313 12.3715 10.0849 12.2713 10.1594C12.1558 10.1979 12.0696 10.1981 11.9483 10.1968C11.891 10.1963 11.891 10.1963 11.8326 10.1958C11.8033 10.1954 11.7741 10.195 11.744 10.1946C11.7442 10.2232 11.7444 10.2519 11.7447 10.2815C11.7468 10.552 11.7484 10.8225 11.7494 11.0931C11.75 11.2321 11.7507 11.3712 11.7519 11.5103C11.7531 11.6445 11.7537 11.7788 11.754 11.9131C11.7542 11.9642 11.7546 12.0154 11.7551 12.0666C11.7559 12.1384 11.756 12.2101 11.756 12.2819C11.7562 12.3228 11.7564 12.3636 11.7567 12.4057C11.7424 12.5282 11.7124 12.5927 11.6385 12.6907C11.4978 12.7845 11.3821 12.7903 11.2166 12.761C11.1198 12.6843 11.0607 12.6249 11.0057 12.5149C11.0025 12.4413 11.0016 12.3676 11.0017 12.2939C11.0017 12.2713 11.0017 12.2486 11.0017 12.2253C11.0017 12.1503 11.002 12.0754 11.0023 12.0004C11.0023 11.9485 11.0024 11.8966 11.0024 11.8447C11.0025 11.7079 11.0029 11.5712 11.0033 11.4344C11.0036 11.2949 11.0038 11.1554 11.004 11.0159C11.0044 10.7421 11.005 10.4684 11.0057 10.1946C10.9631 10.1964 10.9631 10.1964 10.9196 10.1983C10.882 10.1992 10.8445 10.2002 10.8057 10.2012C10.7501 10.203 10.7501 10.203 10.6933 10.2049C10.5425 10.1907 10.4535 10.1314 10.3443 10.0298C10.283 9.91038 10.2786 9.79694 10.3026 9.66722C10.4106 9.49797 10.4812 9.45233 10.6768 9.45006Z" fill="#7CB184"/>
<path d="M11.4629 6.75001C11.5617 6.81307 11.6214 6.85614 11.6738 6.96095C11.6879 7.16517 11.6736 7.27747 11.5639 7.45533C11.5459 7.48517 11.5459 7.48517 11.5274 7.51561C11.4995 7.56159 11.4713 7.60741 11.4429 7.65308C11.3841 7.74812 11.3266 7.84394 11.2692 7.93983C11.2254 8.01272 11.1816 8.0856 11.1377 8.15846C11.1165 8.1936 11.0953 8.22875 11.0735 8.26496C11.0532 8.29838 11.0328 8.3318 11.0119 8.36623C10.9938 8.39606 10.9757 8.42588 10.957 8.45661C10.7973 8.69996 10.7973 8.69996 10.6894 8.75391C10.5266 8.77343 10.4088 8.77629 10.2676 8.688C10.1667 8.58088 10.1425 8.4991 10.1447 8.35061C10.1845 8.14716 10.315 7.9739 10.4236 7.8003C10.4496 7.75781 10.4755 7.71528 10.5015 7.67273C10.5523 7.58962 10.6034 7.50677 10.655 7.42414C10.7131 7.33093 10.7705 7.23735 10.8274 7.14346C11.1068 6.69067 11.1068 6.69067 11.4629 6.75001Z" fill="#7CB184"/>
<path d="M10.2999 6.74995C10.435 6.80869 10.4923 6.86038 10.546 6.99605C10.5538 7.14482 10.5351 7.27359 10.4559 7.40034C10.3362 7.47396 10.229 7.49549 10.0889 7.48824C9.95997 7.43379 9.87332 7.36652 9.80768 7.24214C9.78854 7.0667 9.80482 6.96069 9.91315 6.82027C10.0436 6.7333 10.1486 6.73076 10.2999 6.74995Z" fill="#7CB184"/>
<path d="M13.8524 15.891C13.979 15.9539 14.0511 16.0337 14.1007 16.1678C14.0978 16.3108 14.0634 16.3995 13.993 16.5238C13.8978 16.6036 13.8365 16.6264 13.714 16.6446C13.5778 16.6252 13.5025 16.5733 13.3954 16.4886C13.3346 16.3671 13.343 16.2348 13.3602 16.1019C13.4861 15.9005 13.6185 15.8528 13.8524 15.891Z" fill="#7CB184"/>
<path d="M11.9687 8.13872C12.0568 8.27973 12.0525 8.41703 12.0236 8.57818C11.9577 8.68804 11.9577 8.68804 11.8478 8.75396C11.6711 8.78872 11.5418 8.78127 11.3864 8.68804C11.2937 8.53359 11.2841 8.40239 11.3205 8.22661C11.3949 8.12535 11.4508 8.07356 11.5622 8.01787C11.7143 8.0134 11.8404 8.05982 11.9687 8.13872Z" fill="#7CB184"/>
</g>
<defs>
<clipPath id="clip0_2190_3626">
<rect width="18" height="18" fill="white"/>
</clipPath>
</defs>
</svg>
