<svg xmlns="http://www.w3.org/2000/svg" width="100" height="100" style="shape-rendering:geometricPrecision;text-rendering:geometricPrecision;image-rendering:optimizeQuality;fill-rule:evenodd;clip-rule:evenodd"><path fill="#7ab086" d="M42.5-.5h7q.968 1.968 3 3a9.87 9.87 0 0 1 1 6q-1 0-1 1-4.645 1.89-7 6.5-3.155.377-4-3 2.313-4.152 6-7a4.45 4.45 0 0 0-2-1.5 25.5 25.5 0 0 0-6 8.5q-2.947.936-5-1.5 2.528-7.075 8-12" style="opacity:.909"/><path fill="#7bb185" d="M52.5 9.5q1 0 1-1 7.445-11.442 16.5-1 1 2 0 4a228 228 0 0 0-12.5 13 12.4 12.4 0 0 1-4-2.5 203 203 0 0 1 11-12.5q-1.636-2.082-4-1.5A88.7 88.7 0 0 1 51 20.5q-2.432-.681-3.5-3 2.54-4.026 5-8" style="opacity:.921"/><path fill="#7bb084" d="M76.5 8.5q10.185-.816 13 9-.564 2.825-3 4.5A75.2 75.2 0 0 0 70 34.5q-4.112-1.082-3-5A95 95 0 0 1 83.5 17q-1.898-2.974-5-3a148 148 0 0 0-14 15q-2.837.463-4-2.5 6.45-10.444 16-18" style="opacity:.918"/><path fill="#7bb185" d="M66.5 99.5h-23q-8.82-1.656-16-7.5Q12.663 79.05 4 61.5q-3.188-8.697 1-17Q11.62 27.506 26.5 17q6.816-3.87 14-1a433 433 0 0 1 29 20q1.44 2.13 2.5 4.5a124.6 124.6 0 0 1 2 19 355 355 0 0 0 7 20q3.4 17.837-14.5 20m-34-80a10.1 10.1 0 0 1 6 1.5 352 352 0 0 1 21 14Q43.857 39.125 36 53.5q-9.354 14.065-9 31Q12.972 71.975 7.5 54q5.77-22.348 25-34.5m24 21a41 41 0 0 1 9 .5l1.5 1.5a102.5 102.5 0 0 1 2 18A259 259 0 0 1 76.5 85q1.038 5.298-4 7-17.916 6.308-35-1-5.392-4.785-5-12 3.504-24.799 24-38.5" style="opacity:.923"/><path fill="#7ab085" d="M54.5 51.5q3.247-.576 5 2a103 103 0 0 1-6.5 7 31.6 31.6 0 0 1-4.5 9q-4.905-11.27 6-18" style="opacity:.899"/><path fill="#7bb083" d="M63.5 67.5q4.822 1.542 5.5 7a27.85 27.85 0 0 1 1 13q-9.01 2.56-18.5 2v-3q6.278-.506 11.5-4 .75-7.484.5-15" style="opacity:.895"/></svg>