<svg width="20" height="21" viewBox="0 0 20 21" fill="none" xmlns="http://www.w3.org/2000/svg">
<path d="M4.3087 6.18935L5.83203 4.66602L7.35536 6.18935C7.83703 6.67102 8.0787 6.91268 8.20536 7.21852C8.33203 7.52435 8.33203 7.86602 8.33203 8.54685V18.8327H6.66536C5.0937 18.8327 4.3087 18.8327 3.82036 18.3443C3.33203 17.856 3.33203 17.071 3.33203 15.4993V8.54685C3.33203 7.86518 3.33203 7.52518 3.4587 7.21852C3.58536 6.91268 3.82703 6.67102 4.3087 6.18935Z" stroke="#7CB184" stroke-linecap="round" stroke-linejoin="round"/>
<path d="M5.83203 4.66905V4.33572C5.83203 3.31572 5.83203 2.80572 6.1487 2.48905C6.46703 2.17238 6.97703 2.17238 7.9987 2.17238H12.627C13.2154 2.17238 13.9787 2.07822 14.3729 2.61405C14.7904 3.18405 14.4337 3.96738 14.6145 4.59738C14.6695 4.78905 14.8062 4.93655 14.9312 5.08655L16.6654 7.16572M16.6654 7.16572H8.33203M16.6654 7.16572V15.4991C16.6654 17.0707 16.6654 17.8557 16.177 18.3441C15.6887 18.8324 14.9037 18.8324 13.332 18.8324H8.33203" stroke="#7CB184" stroke-linecap="round" stroke-linejoin="round"/>
<path d="M8.33203 11.332C8.7287 11.7487 9.78453 11.7287 10.4045 11.5645C10.6205 11.5047 10.8496 11.5112 11.0618 11.5833C11.274 11.6554 11.4597 11.7897 11.5945 11.9687L12.1679 12.7204C12.497 13.1529 12.9962 13.3579 13.4879 13.2629L14.2129 13.1237C14.6112 13.047 15.0079 13.2404 15.2795 13.587C16.1254 14.6654 16.6654 14.6654 16.6654 14.6654" stroke="#7CB184" stroke-linecap="round" stroke-linejoin="round"/>
</svg>
