<svg width="24" height="25" viewBox="0 0 24 25" fill="none" xmlns="http://www.w3.org/2000/svg">
<path d="M15.3649 10.6172C16.875 10.5721 18.3218 11.3033 19.4247 12.2924C19.5095 12.368 19.5955 12.4421 19.6815 12.5164C20.2238 12.991 20.7195 13.5075 21.1399 14.0933C21.1601 14.1212 21.1802 14.1492 21.201 14.178C22.0275 15.3372 22.5973 16.7358 22.3671 18.1794C22.1145 19.5673 21.1703 20.718 20.0365 21.5167C19.9518 21.5745 19.8663 21.631 19.7805 21.687C19.7396 21.7144 19.7396 21.7144 19.6978 21.7424C17.9259 22.9162 15.7738 23.1223 13.7275 22.7099C13.1751 22.5909 12.629 22.4282 12.093 22.2495C11.9379 22.2325 11.783 22.2161 11.6275 22.2033C11.3289 22.1717 11.1464 22.0719 10.9526 21.8346C10.867 21.6734 10.8501 21.5692 10.8391 21.3882C10.808 21.055 10.7124 20.7567 10.6018 20.4419C10.4167 19.9105 10.2763 19.3804 10.1711 18.8277C10.1596 18.7677 10.1481 18.7078 10.1362 18.646C9.82705 16.6677 10.2916 14.7039 11.4589 13.0871C11.7245 12.7287 12.0203 12.4006 12.3274 12.0777C12.358 12.044 12.3887 12.0104 12.4202 11.9757C13.1871 11.1597 14.2548 10.6791 15.3649 10.6172ZM14.5774 11.562C14.7433 12.1647 15.0899 12.5759 15.5149 13.0152C15.5593 13.0624 15.5593 13.0624 15.6046 13.1106C15.7805 13.2935 15.9717 13.4509 16.1711 13.6075C16.3766 13.7694 16.5792 13.9347 16.7819 14.1001C16.9237 14.2157 17.0656 14.3312 17.2097 14.4441C17.5058 14.6786 17.7532 14.9325 17.9993 15.2183C18.0694 15.2956 18.1398 15.3727 18.2102 15.4497C18.393 15.6526 18.5654 15.8625 18.7372 16.0747C18.8753 16.2417 19.02 16.4021 19.166 16.5623C19.2535 16.6588 19.3385 16.7569 19.4231 16.856C20.0132 17.5269 20.6516 18.0372 21.468 18.4058C21.7811 17.3443 21.5068 16.3017 20.9896 15.3505C20.4177 14.3485 19.6119 13.4392 18.7024 12.7339C18.6765 12.7135 18.6506 12.6932 18.6239 12.6722C17.7828 12.0147 16.8281 11.5163 15.7493 11.4214C15.7147 11.4181 15.6801 11.4148 15.6445 11.4113C15.2857 11.3945 14.9268 11.49 14.5774 11.562ZM12.7493 12.7808C11.4757 14.0734 10.8562 15.7215 10.8596 17.5166C10.8675 18.5733 11.1294 19.5481 11.4787 20.5405C11.5478 20.7384 11.5945 20.9132 11.6038 21.1245C11.6075 21.2518 11.6075 21.2518 11.6243 21.3589C11.7391 21.4164 11.8149 21.4091 11.9436 21.4116C12.2288 21.4327 12.4732 21.5104 12.7405 21.605C13.266 21.7897 13.7955 21.9145 14.343 22.0152C14.3767 22.0214 14.4105 22.0276 14.4452 22.034C16.1103 22.3259 17.9041 21.9969 19.3084 21.0411C19.438 20.948 19.563 20.8502 19.6868 20.7495C19.726 20.718 19.726 20.718 19.7661 20.6858C20.3049 20.2504 20.7788 19.7977 21.1399 19.2027C21.1399 19.1717 21.1399 19.1408 21.1399 19.1089C21.0996 19.0901 21.0593 19.0713 21.0178 19.052C19.896 18.5125 19.0237 17.6761 18.2507 16.7137C17.5705 15.8784 16.861 15.112 15.9991 14.4627C15.7525 14.2757 15.5223 14.0798 15.2966 13.8677C15.1992 13.7767 15.0991 13.6918 14.9963 13.607C14.4654 13.1412 14.1365 12.5628 13.8274 11.937C13.4984 11.937 12.973 12.563 12.7493 12.7808Z" fill="#7CB184"/>
<path d="M16.5939 3.1515C17.3594 3.93864 17.8154 5.02863 17.8596 6.12513C17.8614 6.16012 17.8633 6.1951 17.8652 6.23115C17.901 7.50257 17.4195 8.8015 16.6115 9.77845C16.4748 9.92155 16.4275 9.96396 16.2307 10.0099C16.0485 9.96086 15.9632 9.92954 15.8439 9.78138C15.7978 9.63041 15.8025 9.5115 15.8439 9.35951C15.9233 9.23946 16.0136 9.13585 16.1083 9.02754C16.7172 8.27455 17.0681 7.21872 17.0292 6.24873C16.9709 5.71015 16.8677 5.2142 16.6408 4.71888C16.6212 4.67574 16.6015 4.6326 16.5813 4.58815C16.1446 3.71476 15.3869 3.1365 14.4846 2.79701C14.1068 2.67283 13.7107 2.57991 13.3127 2.56263C13.274 2.56022 13.2352 2.5578 13.1953 2.55531C11.7865 2.50828 10.4447 3.06813 9.41492 4.00843C8.89669 4.49682 8.55361 5.06293 8.24963 5.69996C7.90429 6.42341 7.54351 7.04529 6.98456 7.62513C6.95719 7.65547 6.92981 7.6858 6.90161 7.71705C6.41217 8.2449 5.77969 8.54246 5.13551 8.83578C4.46233 9.14411 4.46233 9.14411 3.84393 9.54701C3.77333 9.60094 3.77333 9.60094 3.70129 9.65596C2.82319 10.3507 2.15607 11.4032 1.98175 12.5208C1.97752 12.5604 1.97329 12.6 1.96893 12.6408C1.96277 12.6963 1.95661 12.7518 1.95026 12.809C1.84677 13.9029 2.15195 14.8932 2.81854 15.7667C3.48236 16.5385 4.42526 17.0003 5.43768 17.0939C6.5754 17.1653 7.68436 16.8578 8.61053 16.1857C8.81591 16.0458 8.9419 16.021 9.18768 16.0626C9.33134 16.1584 9.36682 16.2239 9.41913 16.3878C9.42278 16.5667 9.38698 16.6222 9.28143 16.7658C9.17889 16.8483 9.08076 16.9203 8.97089 16.9913C8.94011 17.0115 8.90933 17.0316 8.87762 17.0523C7.63128 17.8459 6.1389 18.1508 4.68805 17.8361C3.76218 17.6145 3.00805 17.157 2.34393 16.4845C2.29562 16.4361 2.29562 16.4361 2.24634 16.3867C1.30112 15.3754 1.08161 14.0813 1.11678 12.7541C1.13503 12.4061 1.20735 12.0812 1.31268 11.7501C1.32738 11.7028 1.32738 11.7028 1.34237 11.6544C1.80229 10.2123 2.84143 9.02286 4.1763 8.32098C4.41269 8.20164 4.65631 8.10254 4.90155 8.00306C6.22619 7.46146 6.99181 6.46878 7.54706 5.17884C8.15515 3.77443 9.37478 2.70563 10.7823 2.14155C12.8012 1.37767 14.9985 1.65046 16.5939 3.1515Z" fill="#7CB184"/>
<path d="M17.7188 17.9835C17.8359 18.0802 17.8359 18.0802 17.9062 18.2179C17.9012 18.4424 17.8948 18.5471 17.7565 18.7258C17.0295 19.3558 16.0209 20.1046 15.0234 20.1632C14.8594 20.1397 14.8594 20.1397 14.7451 20.0636C14.6544 19.9257 14.6284 19.8361 14.625 19.671C14.6874 19.5034 14.7416 19.4491 14.9004 19.3663C14.9646 19.3421 15.0291 19.3188 15.0938 19.296C15.899 18.9982 16.5961 18.6279 17.2288 18.0434C17.3906 17.9011 17.5164 17.9346 17.7188 17.9835Z" fill="#7CB184"/>
<path d="M11.2504 5.00001C11.3617 5.07325 11.3617 5.07325 11.4379 5.18751C11.4664 5.34279 11.4775 5.41568 11.4379 5.56251C11.3701 5.65983 11.2931 5.73976 11.2103 5.82472C11.0858 5.96442 10.9873 6.11383 10.8871 6.2715C10.8695 6.29897 10.8518 6.32644 10.8337 6.35474C10.7271 6.52347 10.6346 6.69568 10.5473 6.87501C10.4916 6.9629 10.4916 6.9629 10.4066 7.01564C10.2182 7.03359 10.0917 7.04026 9.91739 6.96876C9.80684 6.82726 9.79418 6.6748 9.79727 6.50001C9.84418 6.3722 9.88764 6.27508 9.95548 6.16017C9.97238 6.13012 9.98929 6.10006 10.0067 6.0691C10.7068 4.8558 10.7068 4.8558 11.2504 5.00001Z" fill="#7CB184"/>
<path d="M9.14136 8.00022C9.27906 8.09983 9.27906 8.09983 9.37573 8.2346C9.4141 8.60035 9.19856 8.84085 8.98064 9.11604C8.39057 9.83981 8.39057 9.83981 8.15241 9.90012C7.99845 9.89768 7.89126 9.88454 7.75855 9.80491C7.67909 9.67248 7.65279 9.56688 7.66187 9.41197C7.70371 9.25448 7.79778 9.16568 7.90979 9.0507C8.04432 8.90808 8.16296 8.75568 8.28296 8.60081C8.34654 8.51921 8.41015 8.43763 8.47383 8.35611C8.52793 8.28667 8.5817 8.21697 8.63544 8.14726C8.78449 7.96962 8.91614 7.97732 9.14136 8.00022Z" fill="#7CB184"/>
<path d="M10.1723 10.2971C10.2865 10.3733 10.2865 10.3733 10.3598 10.4846C10.3864 10.6882 10.3729 10.8157 10.2569 10.9821C10.2118 11.0405 10.166 11.0983 10.1195 11.1555C10.0718 11.217 10.0243 11.2786 9.9769 11.3403C9.95392 11.3701 9.93093 11.3999 9.90725 11.4306C9.79909 11.5768 9.7112 11.7335 9.62461 11.8931C9.55236 12.0003 9.48683 12.0598 9.3754 12.1253C9.19954 12.1438 9.04618 12.1142 8.90665 12.0052C8.82946 11.817 8.82126 11.6175 8.89347 11.427C8.94084 11.3383 8.99223 11.2544 9.04728 11.1702C9.06626 11.14 9.08525 11.1098 9.10481 11.0787C9.6832 10.1749 9.6832 10.1749 10.1723 10.2971Z" fill="#7CB184"/>
<path d="M14.4371 6.3125C14.5543 6.40918 14.5543 6.40918 14.6246 6.54687C14.6423 7.06222 14.2942 7.46006 13.9623 7.81795C13.7092 8.08324 13.7092 8.08324 13.5054 8.11426C13.3589 8.09375 13.3589 8.09375 13.2242 8C13.1213 7.85471 13.0841 7.75876 13.0958 7.57941C13.1416 7.428 13.2423 7.35197 13.3584 7.24927C13.5769 7.03373 13.7294 6.74922 13.8599 6.47363C13.9214 6.35937 13.9214 6.35937 14.0035 6.29199C14.1642 6.2518 14.2776 6.26979 14.4371 6.3125Z" fill="#7CB184"/>
<path d="M6.93738 10.5305C7.06803 10.621 7.11255 10.6837 7.1659 10.8323C7.17309 10.9797 7.14384 11.0547 7.07801 11.1868C6.9795 11.2855 6.9795 11.2855 6.86121 11.3831C6.6502 11.5648 6.48286 11.7566 6.31812 11.9806C6.23125 12.0809 6.17078 12.1264 6.04676 12.1712C5.88442 12.1644 5.79013 12.1405 5.65418 12.0511C5.56838 11.9224 5.53971 11.8233 5.54834 11.668C5.68759 11.1694 6.40657 10.4439 6.93738 10.5305Z" fill="#7CB184"/>
<path d="M13.3076 3.86387C13.3747 4.006 13.3797 4.09489 13.3574 4.25059C13.2215 4.46545 13.102 4.52581 12.8594 4.59043C12.6582 4.642 12.6582 4.642 12.4668 4.71934C12.2787 4.74442 12.2071 4.73483 12.0508 4.62266C11.9512 4.48496 11.9512 4.48496 11.9219 4.3209C11.9598 4.10861 12.014 4.05199 12.1855 3.92246C12.538 3.73002 12.9649 3.55433 13.3076 3.86387Z" fill="#7CB184"/>
</svg>
