<svg width="22" height="23" viewBox="0 0 22 23" fill="none" xmlns="http://www.w3.org/2000/svg">
<g clip-path="url(#clip0_2212_2872)">
<path d="M9.89055 0.488371C9.92523 0.488083 9.95991 0.487794 9.99565 0.487497C10.11 0.486682 10.2244 0.486513 10.3387 0.48642C10.4185 0.486144 10.4983 0.485855 10.5781 0.485553C10.7453 0.485039 10.9125 0.48488 11.0797 0.484931C11.2934 0.484939 11.5071 0.483767 11.7207 0.482286C11.8856 0.481328 12.0504 0.481156 12.2152 0.481202C12.2939 0.481101 12.3727 0.480722 12.4514 0.480056C12.5619 0.479209 12.6723 0.479463 12.7827 0.479979C12.8149 0.479496 12.8471 0.479013 12.8802 0.478516C13.1831 0.482092 13.4438 0.597459 13.6572 0.815064C13.9278 1.10976 13.9457 1.36142 13.939 1.7545C13.9167 1.98518 13.8486 2.18236 13.7512 2.39148C13.815 2.40344 13.815 2.40344 13.8801 2.41565C14.1735 2.50118 14.3736 2.72058 14.522 2.97961C14.6822 3.2854 14.6901 3.59784 14.6536 3.93835C14.5424 4.28913 14.3532 4.54515 14.052 4.75476C14.0236 4.76894 13.9953 4.78312 13.9661 4.79773C13.9661 4.91117 13.9661 5.0246 13.9661 5.14148C14.0051 5.13007 14.0442 5.11866 14.0844 5.1069C15.0726 4.82918 16.098 4.78908 17.1028 5.01257C17.1329 5.01926 17.163 5.02595 17.1941 5.03284C17.9285 5.20475 18.6501 5.54596 19.2512 6.00085C19.2901 6.03027 19.329 6.05968 19.369 6.08998C20.5853 7.04956 21.4044 8.42276 21.6024 9.9664C21.7747 11.4832 21.4468 13.0657 20.5 14.2938C20.4287 14.3808 20.3561 14.4667 20.2825 14.5516C20.2629 14.5746 20.2434 14.5976 20.2233 14.6213C19.6763 15.262 19.0186 15.7293 18.2629 16.0985C18.2675 16.1571 18.2675 16.1571 18.2722 16.2169C18.426 18.2532 18.155 20.1984 16.784 21.8063C16.7197 21.8781 16.6546 21.9494 16.5888 22.02C16.5083 22.1065 16.4319 22.1952 16.3562 22.286C16.2298 22.4305 16.1694 22.4965 15.9762 22.5118C15.9179 22.5123 15.8596 22.5124 15.8013 22.5121C15.7691 22.5122 15.737 22.5124 15.7039 22.5126C15.5958 22.513 15.4878 22.5128 15.3797 22.5127C15.3023 22.5128 15.225 22.5131 15.1476 22.5133C14.9371 22.5139 14.7266 22.5139 14.5161 22.5138C14.3401 22.5138 14.1642 22.514 13.9882 22.5142C13.5727 22.5147 13.1571 22.5147 12.7415 22.5144C12.3138 22.5142 11.8861 22.5147 11.4583 22.5156C11.0906 22.5164 10.7229 22.5166 10.3552 22.5165C10.1359 22.5164 9.91649 22.5165 9.69711 22.5171C9.49033 22.5177 9.28356 22.5176 9.07677 22.517C9.00129 22.5169 8.92581 22.517 8.85033 22.5174C8.44601 22.5191 8.07907 22.4996 7.68542 22.3988C7.48812 22.3553 7.33514 22.3836 7.1403 22.4366C6.84549 22.5125 6.55641 22.5173 6.25317 22.517C6.17366 22.517 6.17366 22.517 6.09254 22.517C5.64609 22.5117 5.23281 22.4528 4.81338 22.2969C4.6761 22.2794 4.56328 22.3258 4.43237 22.3666C3.56312 22.6351 2.45941 22.6147 1.63252 22.2021C1.59073 22.1798 1.59073 22.1798 1.5481 22.1571C1.50165 22.1348 1.50165 22.1348 1.45427 22.1121C1.03533 21.9001 0.699679 21.5802 0.473877 21.1688C0.459309 21.1436 0.444742 21.1183 0.429733 21.0923C0.27991 20.7774 0.297286 20.3429 0.374679 20.0097C0.604257 19.3891 1.10375 19.0195 1.68254 18.7493C1.87739 18.6622 2.07103 18.5971 2.27856 18.5477C2.32474 18.5363 2.32474 18.5363 2.37186 18.5246C2.67577 18.456 2.96959 18.449 3.28027 18.451C3.35335 18.4506 3.35335 18.4506 3.42789 18.45C3.76792 18.4508 4.09258 18.487 4.427 18.5477C4.42395 18.5241 4.4209 18.5005 4.41775 18.4761C4.13991 16.2153 4.84205 13.8874 6.23975 12.0962C6.46662 11.8129 6.70954 11.5463 6.96216 11.286C6.99883 11.2476 7.03549 11.2092 7.07327 11.1697C7.28852 10.9487 7.5155 10.7522 7.75557 10.5587C8.32656 10.0916 8.63733 9.48266 8.72388 8.75085C8.73041 8.62246 8.73178 8.49421 8.7327 8.36566C8.73312 8.32831 8.73355 8.29097 8.73399 8.25249C8.73534 8.12998 8.73641 8.00746 8.73747 7.88493C8.73836 7.79962 8.73926 7.71431 8.74018 7.629C8.74254 7.40515 8.74467 7.1813 8.74675 6.95744C8.74891 6.72874 8.7513 6.50004 8.75367 6.27134C8.75828 5.82311 8.76264 5.37487 8.76684 4.92664C8.68047 4.91641 8.5941 4.90619 8.50773 4.89597C7.95458 4.81558 7.61148 4.21888 7.30389 3.81046C7.07098 3.49601 6.92475 3.26803 6.96216 2.86414C7.03906 2.64197 7.15813 2.52612 7.34888 2.39148C7.5406 2.31383 7.70778 2.29303 7.91385 2.28775C7.9421 2.28692 7.97034 2.28609 7.99945 2.28523C8.08874 2.28268 8.17803 2.28068 8.26733 2.27869C8.32826 2.27704 8.38919 2.27537 8.45012 2.27365C8.59865 2.26955 8.7472 2.26593 8.89575 2.26257C8.87487 2.2125 8.85399 2.16243 8.83247 2.11084C8.71584 1.79852 8.69431 1.39474 8.82861 1.08362C9.07804 0.67651 9.42458 0.487812 9.89055 0.488371ZM9.60795 1.35373C9.50336 1.49661 9.51587 1.57063 9.54028 1.74695C9.61118 1.93128 9.68208 2.11562 9.75513 2.30554C10.8044 2.30554 11.8537 2.30554 12.9348 2.30554C13.1357 1.87573 13.1357 1.87573 13.1497 1.44617C13.0843 1.34768 13.0843 1.34768 12.9778 1.27429C12.8662 1.25732 12.7727 1.25074 12.6612 1.25205C12.6138 1.2516 12.6138 1.2516 12.5655 1.25114C12.4612 1.25038 12.357 1.25088 12.2527 1.25147C12.1801 1.25135 12.1076 1.25118 12.035 1.25097C11.883 1.25071 11.731 1.25108 11.579 1.25188C11.3842 1.25286 11.1895 1.2523 10.9947 1.25127C10.8449 1.25065 10.6951 1.25085 10.5453 1.25129C10.4735 1.25141 10.4017 1.25127 10.3299 1.25087C10.2295 1.25043 10.1291 1.2511 10.0287 1.25205C9.98424 1.25153 9.98424 1.25153 9.93887 1.251C9.79613 1.25352 9.72281 1.26617 9.60795 1.35373ZM7.77856 3.07898C7.85836 3.21371 7.93871 3.33927 8.03772 3.46066C8.06192 3.49041 8.08613 3.52015 8.11107 3.5508C8.14854 3.59641 8.14854 3.59641 8.18677 3.64294C8.22424 3.68906 8.22424 3.68906 8.26247 3.7361C8.4559 3.99418 8.4559 3.99418 8.72388 4.1532C8.78808 4.15737 8.85245 4.15918 8.91679 4.15952C8.95631 4.15983 8.99582 4.16014 9.03653 4.16045C9.10142 4.16063 9.10142 4.16063 9.16762 4.1608C9.21326 4.16109 9.25889 4.16137 9.30591 4.16166C9.45722 4.16251 9.60852 4.16301 9.75983 4.16344C9.83731 4.1637 9.83731 4.1637 9.91635 4.16397C10.1897 4.16486 10.4631 4.16548 10.7365 4.16588C11.0189 4.16636 11.3012 4.16784 11.5836 4.16954C11.8007 4.17066 12.0178 4.17102 12.235 4.17118C12.3391 4.17139 12.4431 4.17189 12.5472 4.17268C12.693 4.17373 12.8387 4.17369 12.9845 4.17339C13.0488 4.17422 13.0488 4.17422 13.1145 4.17506C13.3787 4.17309 13.5353 4.13651 13.7512 3.98132C13.8563 3.85596 13.8782 3.78146 13.8989 3.61877C13.8762 3.43379 13.8297 3.34852 13.7083 3.20789C13.4596 3.03315 13.1919 3.06175 12.9005 3.06435C12.8452 3.06433 12.7898 3.06431 12.7328 3.06429C12.5815 3.06425 12.4302 3.06501 12.279 3.06591C12.1207 3.06672 11.9624 3.06679 11.8042 3.06694C11.5047 3.06734 11.2052 3.0684 10.9057 3.0697C10.5647 3.07114 10.2236 3.07185 9.88257 3.07249C9.18123 3.07384 8.4799 3.07611 7.77856 3.07898ZM9.54028 4.92664C9.53966 5.03996 9.53903 5.15328 9.53838 5.27004C9.53621 5.64718 9.53334 6.02431 9.53015 6.40144C9.52824 6.62979 9.52656 6.85813 9.5254 7.08648C9.52427 7.30742 9.52252 7.52835 9.52038 7.74928C9.51967 7.83299 9.51917 7.9167 9.5189 8.0004C9.51478 9.1584 9.31092 10.1335 8.46606 10.9852C8.29869 11.1435 8.12622 11.2953 7.95094 11.4448C6.37772 12.7933 5.34512 14.7601 5.15747 16.829C5.15177 16.8777 5.14606 16.9264 5.14018 16.9765C5.0962 17.4277 5.03719 18.1353 5.24341 18.5477C5.47028 18.5194 5.69716 18.491 5.93091 18.4618C5.92404 18.4098 5.91717 18.3579 5.9101 18.3044C5.70091 16.4046 6.28191 14.4949 7.45361 12.9913C7.53174 12.8942 7.6116 12.7987 7.69263 12.704C7.7126 12.6806 7.73258 12.6572 7.75316 12.6331C8.04605 12.2942 8.36628 11.9982 8.70894 11.7103C8.83525 11.6037 8.9519 11.4901 9.06763 11.3719C9.09178 11.3503 9.11593 11.3286 9.14081 11.3063C9.80952 10.6967 10.1471 9.71697 10.2278 8.83679C10.2332 8.70409 10.2332 8.57163 10.2327 8.43883C10.2327 8.40064 10.2327 8.36245 10.2327 8.32311C10.2326 8.19803 10.2323 8.07295 10.232 7.94788C10.2319 7.8607 10.2318 7.77353 10.2318 7.68635C10.2316 7.45776 10.2312 7.22918 10.2307 7.00059C10.2303 6.76699 10.2301 6.53339 10.2299 6.29979C10.2294 5.84207 10.2287 5.38435 10.2278 4.92664C10.0009 4.92664 9.77403 4.92664 9.54028 4.92664ZM11.0012 4.92664C11.001 4.97489 11.0007 5.02314 11.0005 5.07285C10.998 5.53104 10.9948 5.98923 10.9911 6.44741C10.9892 6.68288 10.9875 6.91835 10.9863 7.15382C10.9852 7.38173 10.9835 7.60963 10.9813 7.83753C10.9806 7.9238 10.9801 8.01008 10.9798 8.09635C10.9747 9.57611 10.6086 10.9154 9.54297 11.9869C9.33104 12.1957 9.1111 12.388 8.87427 12.5682C8.73884 12.6852 8.62551 12.8259 8.50903 12.9618C10.3808 12.9618 12.2525 12.9618 14.1809 12.9618C13.957 12.7005 13.957 12.7005 13.7136 12.4677C13.6581 12.4185 13.6581 12.4185 13.6015 12.3685C13.5349 12.3105 13.4683 12.2526 13.4014 12.1949C12.4084 11.3368 11.869 10.2249 11.7317 8.92273C11.71 8.60518 11.7107 8.287 11.7097 7.96886C11.709 7.88043 11.7082 7.792 11.7074 7.70358C11.7053 7.4738 11.7041 7.24402 11.7029 7.01423C11.7016 6.77857 11.6996 6.54292 11.6977 6.30726C11.694 5.84705 11.6911 5.38685 11.6887 4.92664C11.4618 4.92664 11.235 4.92664 11.0012 4.92664ZM12.4622 4.92664C12.4592 5.4231 12.4569 5.91956 12.4555 6.41603C12.4548 6.64664 12.4539 6.87724 12.4524 7.10785C12.451 7.33101 12.4503 7.55417 12.4499 7.77734C12.4497 7.86185 12.4492 7.94636 12.4485 8.03087C12.4389 9.23659 12.6643 10.2519 13.4504 11.2001C13.4799 11.2382 13.4799 11.2382 13.51 11.2771C13.6673 11.4741 13.8536 11.6229 14.0497 11.7802C15.5328 12.994 16.597 14.8281 16.7927 16.7511C16.9047 18.2133 16.6382 19.629 15.6848 20.7821C15.6548 20.8192 15.6247 20.8563 15.5937 20.8945C15.4368 21.0244 15.319 21.0251 15.1243 21.0191C15.073 21.0189 15.073 21.0189 15.0207 21.0186C14.9467 21.0181 14.8726 21.0172 14.7986 21.0158C14.6811 21.0137 14.5637 21.0131 14.4463 21.0129C14.1124 21.0122 13.7785 21.0089 13.4447 21.0042C13.2402 21.0014 13.0358 21.0005 12.8313 21.0008C12.7536 21.0005 12.676 20.9994 12.5984 20.9976C12.1668 20.9766 12.1668 20.9766 11.7744 21.1234C11.6786 21.2196 11.5994 21.3192 11.5168 21.4266C11.4253 21.5017 11.3315 21.5695 11.2347 21.6375C11.2144 21.653 11.194 21.6685 11.1731 21.6844C11.1731 21.6986 11.1731 21.7128 11.1731 21.7274C11.7715 21.7375 12.3698 21.745 12.9682 21.7497C13.2461 21.7519 13.524 21.755 13.8019 21.7598C14.0702 21.7645 14.3384 21.7671 14.6067 21.7682C14.709 21.769 14.8112 21.7705 14.9134 21.7728C15.4627 21.8142 15.4627 21.8142 15.9601 21.6351C16.0592 21.5268 16.1298 21.4258 16.2004 21.2977C16.2438 21.2387 16.2877 21.18 16.3325 21.122C16.3704 21.0672 16.4078 21.012 16.4448 20.9567C16.4748 20.9122 16.4748 20.9122 16.5055 20.8669C17.3737 19.566 17.7662 17.9795 17.4868 16.4288C17.445 16.1951 17.4008 15.9472 17.4465 15.7118C17.5746 15.5404 17.7541 15.4646 17.9434 15.3761C19.2213 14.7544 20.1413 13.732 20.6155 12.3871C21.0586 10.9953 20.889 9.57175 20.2261 8.28625C20.0628 7.98082 19.8705 7.7191 19.6379 7.46179C19.5923 7.40779 19.5923 7.40779 19.5458 7.35269C18.7102 6.38008 17.473 5.78108 16.2004 5.6571C15.4397 5.60629 14.7528 5.71578 14.0324 5.95151C13.5668 6.10241 13.5668 6.10241 13.3672 6.05994C13.2623 5.99001 13.2393 5.94486 13.1926 5.82898C13.1789 5.72664 13.1789 5.72664 13.1748 5.61481C13.1723 5.55457 13.1723 5.55457 13.1698 5.49312C13.1685 5.45152 13.1671 5.40992 13.1658 5.36707C13.1633 5.30367 13.1633 5.30367 13.1607 5.239C13.1567 5.13489 13.1531 5.03076 13.1497 4.92664C12.9228 4.92664 12.6959 4.92664 12.4622 4.92664ZM7.47448 14.294C7.40902 14.4355 7.33251 14.5707 7.25757 14.7074C6.97756 15.2633 6.79945 15.8587 6.68555 16.4691C6.6785 16.5067 6.67145 16.5443 6.66419 16.5831C6.61847 16.8526 6.61106 17.1145 6.61841 17.3876C6.71395 17.2629 6.78884 17.1409 6.86011 17.0009C7.54384 15.733 8.71077 14.9633 10.0559 14.5516C10.0906 14.5409 10.1253 14.5303 10.161 14.5192C10.3626 14.4627 10.5364 14.4419 10.7434 14.4657C10.9403 14.621 10.9923 14.748 11.0334 14.9921C11.043 15.0455 11.0525 15.0989 11.0623 15.1539C11.2343 16.291 11.1356 17.4257 10.6145 18.4618C10.6145 18.4902 10.6145 18.5185 10.6145 18.5477C10.6494 18.5567 10.6494 18.5567 10.6851 18.5659C11.3583 18.7423 12.0456 18.9408 12.6112 19.3628C12.6757 19.4151 12.6757 19.4151 12.7629 19.4071C12.8255 19.699 12.7843 19.8419 12.634 20.0946C12.6051 20.1518 12.5765 20.2091 12.5481 20.2665C12.8798 20.2745 13.2114 20.2806 13.5432 20.2843C13.6972 20.2861 13.8512 20.2885 14.0053 20.2924C14.1541 20.2962 14.3028 20.2982 14.4516 20.2991C14.5357 20.3 14.6198 20.3027 14.7039 20.3054C14.9793 20.3126 14.9793 20.3126 15.2164 20.1936C15.2834 20.106 15.3344 20.0211 15.384 19.9227C15.4179 19.8662 15.452 19.8098 15.4863 19.7535C15.518 19.6956 15.5493 19.6374 15.5801 19.579C15.6048 19.532 15.6048 19.532 15.6301 19.484C16.2448 18.2785 16.1869 16.8844 15.7975 15.6177C15.6781 15.25 15.5368 14.8979 15.3509 14.5587C15.2883 14.4441 15.2312 14.3287 15.1773 14.2097C15.0174 13.8764 15.0174 13.8764 14.722 13.6752C14.5397 13.6511 14.3671 13.6479 14.1838 13.6518C14.1149 13.651 14.046 13.6498 13.9772 13.6484C13.791 13.6455 13.6051 13.6466 13.419 13.6487C13.2237 13.6503 13.0285 13.6488 12.8332 13.6478C12.5053 13.6466 12.1776 13.6481 11.8497 13.6512C11.4713 13.6547 11.0931 13.6536 10.7147 13.65C10.3891 13.6471 10.0636 13.6467 9.73803 13.6484C9.54387 13.6494 9.34981 13.6495 9.15565 13.6474C8.973 13.6455 8.79062 13.6468 8.608 13.6505C8.54123 13.6514 8.47444 13.6512 8.40768 13.6497C7.87043 13.6393 7.68602 13.8268 7.47448 14.294ZM8.07935 16.5712C7.58037 17.1191 7.17498 17.8118 7.0481 18.5477C7.15528 18.5853 7.26265 18.6218 7.37036 18.6578C7.41523 18.6737 7.41523 18.6737 7.461 18.69C7.78691 18.7971 8.036 18.7381 8.36133 18.6364C8.61143 18.5605 8.84604 18.5387 9.10683 18.5291C9.49411 18.5247 9.49411 18.5247 9.83469 18.3696C9.91554 18.2452 9.9649 18.1294 10.0129 17.9891C10.0325 17.9475 10.0522 17.9058 10.0724 17.8629C10.3203 17.3301 10.4082 16.7543 10.4077 16.171C10.4078 16.1177 10.4078 16.1177 10.4078 16.0632C10.4055 15.796 10.3791 15.5419 10.3137 15.2821C9.51349 15.2821 8.61411 16.0372 8.07935 16.5712ZM1.30321 19.9368C1.13959 20.1471 1.09148 20.3248 1.10095 20.5879C1.14762 20.8774 1.35334 21.0886 1.5731 21.2692C2.26903 21.7481 3.16377 21.8382 3.98238 21.6977C4.49058 21.5912 5.04965 21.3533 5.34714 20.9055C5.46548 20.674 5.49158 20.4732 5.41528 20.2235C5.21784 19.7887 4.85345 19.584 4.427 19.4071C3.44296 19.0564 2.04423 19.1057 1.30321 19.9368ZM5.75903 19.2352C5.75903 19.3964 5.80337 19.4325 5.90137 19.5575C6.14465 19.8963 6.24221 20.281 6.18872 20.6962C6.11087 21.0757 5.97843 21.3563 5.71606 21.6415C5.73024 21.6698 5.74442 21.6982 5.75903 21.7274C6.61284 21.7581 7.36151 21.7115 8.05518 21.1527C8.25602 20.9651 8.38416 20.7599 8.40161 20.4813C8.38265 20.1871 8.24275 19.9855 8.03369 19.7858C7.38313 19.2461 6.56457 19.2047 5.75903 19.2352ZM8.68091 19.3212C8.70113 19.3508 8.72134 19.3804 8.74217 19.411C9.0467 19.8706 9.16552 20.2235 9.11059 20.7821C9.04317 21.0932 8.90589 21.3235 8.70189 21.5651C8.63508 21.6389 8.63508 21.6389 8.59497 21.7274C9.481 21.782 10.2672 21.4499 10.9583 20.911C10.9975 20.8816 10.9975 20.8816 11.0375 20.8516C11.3845 20.5756 11.6437 20.1924 11.9036 19.8368C11.3144 19.3537 10.4105 19.2276 9.67993 19.2272C9.63141 19.2266 9.58289 19.2261 9.5329 19.2256C9.23832 19.2251 8.96692 19.2496 8.68091 19.3212Z" fill="#7CB184"/>
<path d="M17.0587 6.55776C17.1072 6.57332 17.1557 6.58889 17.2057 6.60493C18.3187 6.99767 19.2295 7.83702 19.7389 8.89687C20.2376 9.98617 20.2787 11.2119 19.8699 12.3352C19.4543 13.4186 18.6655 14.2711 17.6389 14.8061C17.4691 14.8766 17.3694 14.8852 17.1876 14.8507C16.9596 14.673 16.8705 14.4386 16.7552 14.1793C16.4282 13.4727 16.033 12.8503 15.5118 12.2726C15.4616 12.2136 15.4115 12.1545 15.3614 12.0954C15.0943 11.7932 14.8113 11.51 14.4967 11.2575C14.1138 10.9499 13.8219 10.6383 13.5782 10.2101C13.5583 10.1762 13.5384 10.1422 13.5179 10.1072C13.2417 9.60085 13.1433 9.01956 13.1398 8.44805C13.1395 8.41672 13.1393 8.38539 13.139 8.35311C13.1386 8.28747 13.1384 8.22183 13.1382 8.15619C13.1378 8.05624 13.1364 7.95633 13.1351 7.85639C13.1348 7.79222 13.1346 7.72804 13.1344 7.66387C13.1339 7.63432 13.1334 7.60478 13.1328 7.57433C13.1337 7.3759 13.1723 7.24142 13.2774 7.07339C13.6315 6.80625 14.0581 6.63884 14.4806 6.51479C14.5264 6.50105 14.5722 6.48732 14.6194 6.47317C15.3996 6.27924 16.2958 6.30595 17.0587 6.55776ZM13.922 7.63198C13.8997 8.63527 13.891 9.54224 14.6264 10.3191C14.8146 10.5092 15.0177 10.6819 15.2212 10.8552C16.1811 11.6755 16.9078 12.6797 17.4454 13.8195C17.4596 13.8478 17.4738 13.8762 17.4884 13.9054C17.9705 13.8226 18.4394 13.2823 18.7136 12.9002C19.2684 12.0867 19.5299 11.0811 19.3481 10.1022C19.1235 9.09253 18.5618 8.23493 17.6941 7.67126C16.5214 6.94804 15.1101 6.93926 13.922 7.63198Z" fill="#7CB184"/>
</g>
<defs>
<clipPath id="clip0_2212_2872">
<rect width="22" height="22" fill="white" transform="translate(0 0.5)"/>
</clipPath>
</defs>
</svg>
