<svg width="24" height="24" viewBox="0 0 24 24" fill="none" xmlns="http://www.w3.org/2000/svg">
<path d="M10.0001 4L12.0001 5L14.0001 4M12.0001 2V8.5L15.0001 10.22M17.9283 6.26795L18.0623 8.5L19.9283 9.73205M20.6604 7L15.0312 10.25L15.0416 13.7081M19.9283 14.2679L18.0623 15.5L17.9283 17.7321M20.6604 17L15.0312 13.75L12.0416 15.4881M14.0001 20L12.0001 19L10.0001 20M12.0001 22V15.5L9.0001 13.78M6.07189 17.732L5.93792 15.5L4.07189 14.2679M3.33984 17L8.96901 13.75L8.95857 10.2919M4.07189 9.73205L5.93792 8.5L6.07189 6.26795M3.33984 7L8.96901 10.25L11.9586 8.51192" stroke="#7CB184" stroke-linecap="round" stroke-linejoin="round"/>
</svg>
