<svg width="24" height="25" viewBox="0 0 24 25" fill="none" xmlns="http://www.w3.org/2000/svg">
<g clip-path="url(#clip0_2211_2851)">
<path d="M21.5611 3.17156C22.0069 3.50384 22.2538 3.84308 22.358 4.39031C22.3674 4.51831 22.3653 4.6368 22.358 4.76531C22.4015 4.76144 22.445 4.75757 22.4898 4.75359C22.9275 4.758 23.2626 4.96734 23.5691 5.26354C23.9434 5.67372 24.0267 6.08714 24.0127 6.63097C23.9893 7.06415 23.8022 7.35174 23.507 7.66203C23.1293 7.99331 22.737 8.06283 22.2498 8.06029C21.9281 8.03476 21.6582 7.90841 21.3736 7.76531C21.3543 7.78347 21.3349 7.80163 21.315 7.82034C20.3917 8.68688 20.3917 8.68688 20.151 8.84404C20.0609 8.91975 20.0198 8.9623 19.9904 9.07716C19.984 9.19277 19.9863 9.30528 19.9917 9.42095C19.9929 9.48553 19.9929 9.48553 19.9941 9.55142C19.9959 9.64408 19.9983 9.73672 20.0011 9.82935C20.0085 10.0751 20.0105 10.3208 20.0126 10.5666C20.0131 10.6159 20.0136 10.6652 20.0141 10.716C20.0311 13.1176 19.506 15.6159 18.7246 17.8735C18.673 18.0226 18.6248 18.1725 18.5778 18.3232C18.188 19.5619 17.5599 20.5077 16.3831 21.1338C14.6439 22.0217 12.6555 22.0327 10.7464 22.0275C10.5477 22.027 10.3491 22.0273 10.1504 22.0279C7.25239 22.0345 3.9283 21.9067 1.733 19.7653C1.69602 19.7318 1.65903 19.6982 1.62093 19.6637C0.813612 18.9114 0.38307 17.8184 0.139245 16.7653C0.130906 16.7306 0.122568 16.6958 0.113976 16.66C-0.146607 15.5182 -0.126822 14.0945 0.18612 12.9684C0.196166 12.9319 0.206211 12.8953 0.216561 12.8577C0.538423 11.7276 1.12947 10.7391 1.9205 9.87468C1.96025 9.83106 2.00001 9.78743 2.04098 9.74248C2.58777 9.16958 3.23355 8.73347 3.93612 8.37468C3.97798 8.35318 4.01984 8.33167 4.06297 8.30952C6.26136 7.19115 8.63187 6.67983 11.0758 6.46453C11.1098 6.46147 11.1438 6.45841 11.1789 6.45526C11.5344 6.42384 11.8898 6.39977 12.2467 6.39348C12.3308 6.39183 12.3308 6.39183 12.4165 6.39014C12.5751 6.40746 12.6385 6.43278 12.7486 6.54656C12.8004 6.73281 12.815 6.83203 12.734 7.00945C12.6549 7.10906 12.6549 7.10906 12.5611 7.15593C12.4377 7.16767 12.315 7.177 12.1912 7.18468C12.1134 7.18993 12.0355 7.19521 11.9576 7.20051C11.9165 7.20325 11.8754 7.206 11.8331 7.20883C10.6254 7.29063 9.43737 7.43924 8.24862 7.67156C8.27378 7.67694 8.29893 7.68232 8.32485 7.68786C9.83185 8.01538 11.1181 8.61218 12.233 9.68718C12.2689 9.72017 12.3049 9.75317 12.3419 9.78716C12.6936 10.1193 13.0452 10.5342 13.2729 10.9638C13.3263 11.064 13.376 11.1494 13.4517 11.2341C13.5957 11.274 13.688 11.2879 13.8326 11.2897C13.9083 11.2945 13.984 11.2999 14.0597 11.3058C14.0986 11.3089 14.1375 11.3119 14.1776 11.315C15.4444 11.4527 16.6996 12.1897 17.5065 13.1625C18.0199 13.8115 18.3888 14.5129 18.608 15.3122C19.109 13.1962 19.4046 10.9379 19.1646 8.76433C19.1603 8.72127 19.156 8.67821 19.1515 8.63384C19.0988 8.24545 18.9256 7.9073 18.6226 7.65398C18.2506 7.40869 17.8822 7.33183 17.4444 7.29454C17.3995 7.29061 17.3546 7.28667 17.3084 7.28261C16.7707 7.2378 16.2321 7.21877 15.693 7.19988C15.5414 7.19441 15.3897 7.18886 15.2382 7.18315C15.1451 7.17966 15.052 7.17631 14.9589 7.17313C14.7372 7.16496 14.5158 7.15367 14.2945 7.13754C14.2528 7.13458 14.2111 7.13161 14.1681 7.12856C14.0611 7.10906 14.0611 7.10906 13.9351 7.00652C13.8625 6.85085 13.8447 6.76305 13.8736 6.59343C13.9439 6.48503 13.9439 6.48503 14.0611 6.40593C14.4241 6.33485 14.7921 6.36111 15.1598 6.37371C15.1942 6.3748 15.2287 6.37589 15.2643 6.37701C15.9234 6.39794 16.5814 6.43393 17.2395 6.47624C17.2964 6.47976 17.3534 6.48327 17.4121 6.48689C17.5203 6.49529 17.6282 6.50661 17.7357 6.52108C18.0308 6.5627 18.0308 6.5627 18.3007 6.45317C18.3422 6.40858 18.3836 6.36399 18.4264 6.31804C18.4728 6.27034 18.5193 6.22267 18.5659 6.17504C18.5884 6.15089 18.611 6.12674 18.6342 6.10186C18.7375 5.99336 18.8482 5.89373 18.9596 5.79363C18.9958 5.76021 19.0321 5.7268 19.0694 5.69237C19.1628 5.61541 19.2477 5.5637 19.358 5.51531C19.3385 5.47796 19.3385 5.47796 19.3186 5.43987C19.3016 5.40675 19.2847 5.37364 19.2672 5.33953C19.2503 5.3069 19.2335 5.27427 19.2161 5.24065C19.0496 4.87415 19.0584 4.32932 19.191 3.95085C19.4032 3.50938 19.7453 3.20043 20.2017 3.03093C20.6392 2.89115 21.164 2.94828 21.5611 3.17156ZM20.0327 4.04936C19.8751 4.26398 19.8358 4.46559 19.8469 4.7296C19.8954 4.96453 20.0332 5.15928 20.2017 5.32781C20.2284 5.4912 20.2332 5.60697 20.1417 5.7495C19.9794 5.93867 19.7977 6.10398 19.6079 6.26494C19.4672 6.38613 19.3306 6.5116 19.1939 6.63738C19.1559 6.67235 19.1559 6.67235 19.1171 6.70802C19.0567 6.76354 18.9964 6.8191 18.9361 6.87468C18.971 6.90943 19.0058 6.94417 19.0418 6.97997C19.386 7.32517 19.6264 7.645 19.8267 8.09343C20.0827 7.91559 20.3013 7.71821 20.5189 7.49541C20.6459 7.36794 20.7785 7.24922 20.9157 7.13286C20.9854 7.07348 21.0524 7.01102 21.1187 6.94792C21.2868 6.84022 21.3639 6.83588 21.5611 6.87468C21.6904 6.96345 21.8074 7.05944 21.9251 7.16307C22.1096 7.31564 22.2892 7.31257 22.5189 7.30956C22.7699 7.28244 22.9379 7.15311 23.1021 6.9655C23.2812 6.71804 23.2847 6.46803 23.2486 6.17156C23.1371 5.89199 22.9491 5.71992 22.7008 5.55724C22.4971 5.47844 22.2744 5.51699 22.0594 5.52574C21.8789 5.51467 21.7962 5.48432 21.6549 5.37468C21.5931 5.25115 21.6075 5.1438 21.6111 5.00836C21.6357 4.47097 21.6357 4.47097 21.3795 4.01586C21.1295 3.7866 20.9457 3.71336 20.6064 3.71831C20.3608 3.74965 20.1984 3.87126 20.0327 4.04936ZM2.71737 10.1559C2.68045 10.1889 2.64353 10.2219 2.60549 10.2559C1.86947 10.951 1.35429 11.8644 1.02987 12.8161C1.01737 12.8525 1.00488 12.889 0.992002 12.9265C0.784596 13.5802 0.722415 14.238 0.728112 14.9196C0.728255 14.9561 0.728397 14.9926 0.728544 15.0302C0.738022 16.6807 1.18788 18.1735 2.37924 19.3563C2.66703 19.6303 2.98416 19.847 3.32675 20.0466C3.36937 20.0714 3.36937 20.0714 3.41285 20.0968C5.44179 21.2523 7.97036 21.2836 10.2404 21.2775C10.4437 21.277 10.6469 21.2773 10.8501 21.2779C14.1254 21.2938 14.1254 21.2938 16.9419 19.7981C17.5154 19.2012 17.8325 18.4215 17.9517 17.6091C17.9569 17.5756 17.9621 17.5421 17.9675 17.5076C18.1251 16.2683 17.8974 14.9861 17.1527 13.9614C17.062 13.847 16.9685 13.7356 16.8736 13.6247C16.8378 13.5773 16.8021 13.5299 16.7652 13.4811C15.9506 12.5907 14.7832 12.0746 13.5869 12.0062C13.5181 12.0032 13.4493 12.0009 13.3805 11.9994C13.064 11.9909 13.064 11.9909 12.9361 11.8903C12.867 11.7857 12.8058 11.6834 12.7457 11.5739C11.8831 10.0783 10.4541 9.0172 8.7897 8.56694C6.57857 8.00898 4.38937 8.64732 2.71737 10.1559Z" fill="#7CB184"/>
<path d="M10.5014 10.5774C10.6618 10.7139 10.8169 10.8548 10.9701 10.9993C11.0024 11.0286 11.0346 11.0578 11.0679 11.0879C11.5733 11.5634 12.0083 12.263 12.2357 12.9212C12.2357 12.9676 12.2357 13.014 12.2357 13.0618C12.2792 13.0611 12.3226 13.0603 12.3673 13.0596C12.5317 13.0571 12.6961 13.0554 12.8606 13.0541C12.9311 13.0534 13.0017 13.0524 13.0722 13.0512C14.1634 13.0326 15.1372 13.3447 15.9359 14.1106C16.7138 14.9318 16.9649 15.8905 16.9393 16.9907C16.9005 17.8997 16.5606 18.6747 15.892 19.2962C14.8298 20.1838 13.3312 20.2573 12.0114 20.2507C11.9121 20.2507 11.8128 20.2507 11.7135 20.2508C11.5069 20.2508 11.3003 20.2503 11.0937 20.2494C10.8331 20.2484 10.5726 20.2484 10.3121 20.2487C4.84947 20.2533 4.84947 20.2533 3.02937 18.4836C2.06965 17.4697 1.74406 16.0548 1.77107 14.6918C1.85949 13.3359 2.30399 12.0438 3.29139 11.0755C3.42972 10.9623 3.46024 10.9528 3.64881 10.9466C3.86653 11.0234 3.86653 11.0234 3.93885 11.1399C3.98837 11.3026 4.00542 11.383 3.9264 11.5362C3.84971 11.6488 3.77013 11.7399 3.67518 11.8372C2.85962 12.7427 2.53033 13.9727 2.57948 15.1712C2.65182 16.287 2.95036 17.3042 3.77424 18.0957C4.69125 18.8946 5.84604 19.09 7.0326 19.0149C7.84661 18.9295 8.8729 18.662 9.44666 18.0452C9.58388 17.8337 9.56713 17.6383 9.56184 17.3957C9.56079 17.3146 9.55978 17.2334 9.55882 17.1523C9.55708 17.0247 9.55507 16.8972 9.55228 16.7697C9.54971 16.6463 9.54836 16.523 9.54719 16.3996C9.54552 16.3432 9.54552 16.3432 9.54381 16.2857C9.5423 15.9568 9.64414 15.7217 9.85389 15.47C10.1695 15.2035 10.5024 15.0293 10.8782 14.8603C11.1559 14.732 11.3404 14.6078 11.4857 14.3274C11.6783 13.6754 11.5111 13.1804 11.2054 12.6002C10.6005 11.5086 9.58667 10.7517 8.39948 10.3971C7.36274 10.1045 6.29563 10.206 5.31227 10.6317C5.11622 10.7133 4.9876 10.7287 4.7826 10.6712C4.67337 10.5958 4.64688 10.5449 4.60389 10.4192C4.59298 10.2664 4.61526 10.1965 4.68885 10.0618C5.09459 9.78261 5.57213 9.64839 6.04823 9.54618C6.11847 9.53032 6.11847 9.53032 6.19013 9.51414C7.68563 9.22919 9.32176 9.60998 10.5014 10.5774ZM12.3295 13.8587C12.3178 13.9494 12.3073 14.0402 12.2973 14.1311C12.2299 14.5791 12.0645 14.994 11.7014 15.2814C11.4799 15.4218 11.2439 15.5334 11.0076 15.6467C10.8128 15.7405 10.6329 15.8456 10.4545 15.9681C10.4283 15.9854 10.4022 16.0028 10.3753 16.0207C10.2745 16.165 10.3006 16.3248 10.3067 16.4939C10.308 16.5723 10.3093 16.6507 10.3106 16.729C10.3135 16.8519 10.3168 16.9748 10.3203 17.0977C10.3352 17.6599 10.3424 18.1449 9.97694 18.6077C9.57595 19.0213 9.05335 19.2155 8.5326 19.4368C8.5326 19.4523 8.5326 19.4677 8.5326 19.4837C9.10638 19.4859 9.68015 19.4875 10.2539 19.4885C10.5204 19.489 10.7869 19.4897 11.0534 19.4908C11.3112 19.4918 11.5689 19.4923 11.8266 19.4926C11.9244 19.4927 12.0222 19.4931 12.1199 19.4936C13.2986 19.4995 14.6213 19.4424 15.5278 18.5883C16.0993 17.9814 16.2119 17.2484 16.1893 16.4416C16.1476 15.635 15.7361 14.9666 15.1453 14.4333C14.5123 13.9264 13.8165 13.7873 13.0238 13.8001C12.9613 13.8004 12.8988 13.8006 12.8362 13.8008C12.5652 13.7768 12.5652 13.7768 12.3295 13.8587Z" fill="#7CB184"/>
<path d="M7.74164 12.9875C8.07175 13.2418 8.281 13.6361 8.34277 14.0468C8.37217 14.4804 8.26156 14.8584 8.00842 15.2136C7.73376 15.5239 7.39696 15.7151 6.98322 15.7442C6.49501 15.7589 6.14774 15.6778 5.76831 15.3633C5.45251 15.0464 5.31665 14.6791 5.28125 14.2402C5.29609 13.7942 5.48273 13.3791 5.80621 13.0723C6.37738 12.6167 7.12615 12.5909 7.74164 12.9875ZM6.16895 13.8007C6.04375 14.0511 6.01644 14.2315 6.09863 14.5009C6.22598 14.7259 6.36922 14.8831 6.6084 14.9843C6.84171 15.026 7.03036 15.002 7.23535 14.8818C7.45385 14.7258 7.54285 14.5769 7.58984 14.3134C7.60919 14.0765 7.5431 13.9097 7.40527 13.7187C7.18921 13.5132 7.00857 13.4671 6.71844 13.4713C6.47736 13.4998 6.32698 13.6177 6.16895 13.8007Z" fill="#7CB184"/>
</g>
<defs>
<clipPath id="clip0_2211_2851">
<rect width="24" height="24" fill="white" transform="translate(0 0.5)"/>
</clipPath>
</defs>
</svg>
