<svg width="123" height="117" viewBox="0 0 123 117" fill="none" xmlns="http://www.w3.org/2000/svg">
<path d="M107.701 0.840555C107.456 0.411401 106.971 0.1793 106.483 0.258083C104.028 0.654853 97.3762 2.03383 88.673 6.26099C80.5717 10.196 73.2849 15.4304 67.5999 21.3987C67.1487 21.8724 67.1671 22.6221 67.6406 23.0733C68.114 23.5246 68.8638 23.5063 69.3152 23.0327C74.8067 17.2671 81.8587 12.2045 89.7078 8.39204C92.6408 6.96753 95.7173 5.71225 98.674 4.71519C97.54 5.50682 96.3358 6.408 95.099 7.42856C86.7356 14.3288 82.7965 21.7699 80.9471 27.4818C80.2171 25.8516 79.7111 23.9098 79.5314 23.035C79.4001 22.3943 78.7744 21.9814 78.1336 22.1125C77.4927 22.2436 77.0795 22.8694 77.2106 23.5103C77.3157 24.0239 78.2323 28.2954 80.0681 30.6685C79.0622 34.8487 78.1713 39.0039 77.3101 43.028C76.9443 44.7371 76.584 46.4193 76.2229 48.0677C74.7746 46.313 72.6675 43.0304 72.0916 38.2911C72.0126 37.6419 71.4224 37.1792 70.7728 37.2581C70.1256 37.3377 69.6609 37.9274 69.7399 38.5769C70.567 45.3859 74.1871 49.5173 75.594 50.891C74.4843 55.7813 73.3305 60.312 71.9467 64.2606C70.3622 62.0304 67.71 57.7057 66.6458 52.5038C66.5147 51.863 65.8888 51.4497 65.2479 51.5808C64.607 51.7119 64.1938 52.3378 64.3249 52.9787C65.7366 59.8787 69.6057 65.2003 70.9524 66.8917C69.357 70.7954 67.4524 73.9823 65.0149 76.1832C54.695 68.7405 50.3515 51.7033 61.8435 32.7539C63.1498 30.5999 64.6364 28.4946 66.2622 26.4967C66.6753 25.9893 66.5986 25.2433 66.0911 24.8304C65.5837 24.4175 64.8376 24.4943 64.4248 25.0015C62.7306 27.0838 61.1806 29.2789 59.8179 31.5255C47.6957 51.5141 52.3197 69.6516 63.2947 77.8604C56.5947 84.6789 47.0479 86.9724 46.9479 86.9959C46.3111 87.144 45.9149 87.7802 46.0627 88.4172C46.2082 89.0441 46.8265 89.4382 47.4534 89.31C47.4637 89.3079 47.4741 89.3056 47.4844 89.3033C47.9273 89.2004 58.1135 86.7665 65.3136 79.1809C68.2839 80.737 72.535 81.1836 77.3757 80.1933C82.8561 79.0721 89.0921 76.1088 95.0799 70.8285C100.627 65.9368 104.004 59.4988 105.118 51.6933C106.072 45.0094 105.29 37.362 102.857 29.578C98.5203 15.7014 102.565 8.21177 107.582 2.18544C107.898 1.80562 107.946 1.26974 107.701 0.840555ZM99.392 12.4305C98.0868 17.6758 98.4808 23.516 100.596 30.2844C102.924 37.7341 103.677 45.0215 102.772 51.3585C101.741 58.5906 98.6251 64.5432 93.5128 69.0518C87.0616 74.7409 81.1208 76.9464 77.2728 77.7949C73.3392 78.664 69.7545 78.5196 67.1456 77.4284C68.7983 75.8023 70.209 73.7862 71.4437 71.4484C71.5342 71.4306 71.6321 71.4111 71.7412 71.3888C72.8807 71.1556 74.9938 70.6723 77.4392 69.8671C82.3309 68.2562 86.0288 66.2112 88.43 63.7888C88.8906 63.3243 88.8872 62.5743 88.4226 62.1139C87.958 61.6535 87.2081 61.6568 86.7477 62.1213C83.0486 65.853 76.2763 67.8847 72.7403 68.7356C74.3391 65.0542 75.6274 60.7629 76.802 56.0615C78.819 55.6437 84.0862 54.1113 88.3485 49.0092C88.768 48.5072 88.7008 47.7602 88.1989 47.3409C87.6968 46.9214 86.9499 46.9886 86.5305 47.4905C83.4003 51.2376 79.5997 52.818 77.4334 53.4535C78.1791 50.2843 78.8916 46.9557 79.6263 43.5239C80.0055 41.7527 80.3908 39.9549 80.7882 38.1429C80.8682 38.1284 80.9525 38.1126 81.041 38.0945C82.7901 37.7367 86.1862 36.5973 89.4339 32.9779C89.8708 32.4911 89.8303 31.7421 89.3433 31.3052C88.8565 30.8684 88.1075 30.909 87.6707 31.3958C85.6669 33.6288 83.6276 34.7309 82.2697 35.2623C81.9406 35.3912 81.6359 35.4926 81.3584 35.5742C81.7277 33.935 82.1101 32.2877 82.5111 30.6391C84.9575 20.5808 91.4963 13.4842 96.5507 9.30202C98.742 7.48906 100.852 6.05061 102.605 4.97269C101.3 7.06653 100.113 9.5338 99.392 12.4305Z" fill="#7CB184"/>
<path d="M0.341904 51.7898C0.479988 51.3853 0.864853 51.1056 1.30782 51.0879C3.53812 50.9988 9.63427 51.0141 18.0467 53.0793C25.8774 55.0017 33.2256 58.1616 39.2976 62.2176C39.7795 62.5396 39.8982 63.1755 39.5631 63.6382C39.228 64.1009 38.5654 64.2149 38.0834 63.8931C32.218 59.9748 25.1071 56.9193 17.5202 55.0567C14.6852 54.3608 11.7545 53.8325 8.97556 53.5015C10.115 53.9739 11.3359 54.5266 12.6068 55.1745C21.2014 59.5545 26.0032 65.1552 28.6566 69.6571C29.0053 68.155 29.1008 66.4286 29.1015 65.6592C29.1016 65.0958 29.5776 64.6391 30.1645 64.6391C30.7516 64.6391 31.2275 65.096 31.2275 65.6596C31.2275 66.1113 31.1899 69.8751 30.0026 72.1951C31.639 75.5498 33.1697 78.9033 34.6508 82.1512C35.2798 83.5307 35.8992 84.8884 36.5132 86.2174C37.4709 84.4862 38.7331 81.3516 38.3869 77.2518C38.3396 76.6902 38.7753 76.1977 39.3606 76.1521C39.944 76.1075 40.4586 76.525 40.506 77.0869C41.0036 82.9771 38.5638 87.0895 37.574 88.4919C39.4292 92.4281 41.2587 96.053 43.1856 99.1471C44.1776 96.991 45.7316 92.8826 45.7316 88.308C45.7316 87.7444 46.2075 87.2875 46.7945 87.2875C47.3816 87.2875 47.8575 87.7444 47.8575 88.308C47.8575 94.376 45.4129 99.536 44.5331 101.196C46.638 104.216 48.8858 106.577 51.4248 108.014C59.1595 99.9493 59.9139 84.8185 46.4013 70.8083C44.8653 69.2157 43.1796 67.6954 41.3907 66.2898C40.9363 65.9328 40.8696 65.2899 41.2414 64.8537C41.6133 64.4176 42.2831 64.3535 42.7373 64.7104C44.6014 66.1755 46.3591 67.7606 47.9613 69.4216C62.2149 84.2002 61.4118 100.308 53.2389 109.132C60.3562 113.731 69.1625 114.018 69.2547 114.02C69.8412 114.036 70.304 114.504 70.2887 115.067C70.2735 115.622 69.8007 116.061 69.2265 116.061C69.2171 116.061 69.2075 116.061 69.1981 116.061C68.7901 116.05 59.3963 115.755 51.7014 110.596C49.3698 112.422 45.7124 113.533 41.2782 113.533C36.258 113.533 30.2421 112.109 24.0277 108.686C18.2708 105.515 14.1434 100.664 11.7601 94.2675C9.71917 88.7904 9.03092 82.2004 9.76975 75.21C11.0868 62.7482 6.18307 57.1249 0.687943 52.9046C0.341904 52.6385 0.203957 52.1943 0.341904 51.7898ZM9.73202 60.1378C11.8231 64.3399 12.5272 69.3375 11.8851 75.4158C11.1781 82.1059 11.8271 88.3871 13.7621 93.5798C15.9702 99.5061 19.7802 103.993 25.0859 106.915C31.7813 110.603 37.4014 111.439 40.9372 111.491C44.5521 111.545 47.6779 110.804 49.7754 109.433C48.0298 108.345 46.4269 106.887 44.9208 105.127C44.838 105.128 44.7484 105.128 44.6485 105.128C43.6046 105.128 41.6598 105.085 39.365 104.828C34.7742 104.313 31.1552 103.225 28.6082 101.595C28.1197 101.283 27.9878 100.649 28.3135 100.18C28.6391 99.7113 29.2991 99.5847 29.7874 99.8972C33.711 102.408 40.0308 102.954 43.2928 103.061C41.2249 100.23 39.3203 96.8303 37.4419 93.0648C35.5933 93.0605 30.6866 92.6765 26.0214 89.1061C25.5623 88.7547 25.4869 88.1126 25.8528 87.672C26.2188 87.2312 26.8876 87.1589 27.3466 87.5102C30.7728 90.1325 34.3987 90.8101 36.4176 90.9725C35.1919 88.4262 33.9668 85.7397 32.7035 82.9698C32.0515 81.5402 31.3894 80.0894 30.714 78.6285C30.6411 78.6301 30.5641 78.6313 30.483 78.6313C28.8808 78.6313 25.69 78.256 22.1834 75.7618C21.7117 75.4263 21.6126 74.7871 21.9622 74.3343C22.3116 73.8815 22.9775 73.7864 23.4491 74.1219C25.6126 75.6607 27.6037 76.2388 28.8933 76.4528C29.2058 76.5048 29.492 76.5378 29.7506 76.5588C29.131 75.2389 28.4986 73.9145 27.8494 72.5922C23.8892 64.5247 16.8637 59.6637 11.6674 57.0065C9.41469 55.8546 7.30048 55.0049 5.56551 54.3977C7.08979 55.9397 8.57729 57.8172 9.73202 60.1378Z" fill="#7CB184"/>
</svg>
