<svg width="18" height="19" viewBox="0 0 18 19" fill="none" xmlns="http://www.w3.org/2000/svg">
<g clip-path="url(#clip0_2217_3784)">
<path d="M3.83632 0.485742C3.87357 0.485445 3.91082 0.485149 3.9492 0.484843C3.99027 0.485054 4.03134 0.485265 4.07365 0.485483C4.11717 0.485294 4.16068 0.485104 4.20552 0.484909C4.32653 0.484492 4.44754 0.484551 4.56855 0.48481C4.69897 0.484976 4.82939 0.484537 4.9598 0.484176C5.21538 0.483571 5.47096 0.483543 5.72654 0.483727C5.93419 0.483869 6.14185 0.483818 6.34951 0.48363C6.37902 0.483604 6.40854 0.483578 6.43896 0.48355C6.49892 0.483497 6.55888 0.483443 6.61884 0.483388C7.18152 0.482905 7.7442 0.483097 8.30688 0.4835C8.82207 0.483849 9.33725 0.483394 9.85244 0.482553C10.381 0.481697 10.9096 0.481358 11.4382 0.481592C11.7351 0.481715 12.032 0.481635 12.3289 0.481021C12.5817 0.480504 12.8344 0.480479 13.0871 0.481093C13.2162 0.481394 13.3452 0.481465 13.4742 0.48093C13.6139 0.480357 13.7536 0.480867 13.8932 0.481492C13.9548 0.480985 13.9548 0.480985 14.0177 0.480469C14.0736 0.480986 14.0736 0.480986 14.1306 0.481514C14.179 0.48152 14.179 0.48152 14.2283 0.481526C14.3096 0.499113 14.3096 0.499113 14.3727 0.564843C14.4267 0.660344 14.4284 0.725642 14.4286 0.835148C14.429 0.874625 14.4293 0.914101 14.4297 0.954774C14.4295 1.01901 14.4295 1.01901 14.4294 1.08455C14.4299 1.15298 14.4304 1.2214 14.431 1.28983C14.4315 1.36242 14.4318 1.43501 14.432 1.50761C14.4329 1.75735 14.4362 2.00707 14.4397 2.25679C14.44 2.28144 14.4403 2.3061 14.4407 2.3315C14.4544 3.28741 14.557 4.22987 14.6963 5.17489C14.746 5.17326 14.746 5.17326 14.7966 5.1716C14.9073 5.17489 14.9073 5.17489 14.9908 5.22763C15.0763 5.35915 15.0652 5.44118 15.0479 5.59677C14.9842 5.69079 14.9467 5.7008 14.837 5.73739C14.8586 6.02304 14.9099 6.2998 14.9671 6.58011C14.984 6.66317 15.0007 6.74628 15.0173 6.8294C15.0646 7.0656 15.1123 7.30173 15.1602 7.53781C15.2911 8.1842 15.4156 8.83064 15.5181 9.48222C15.5224 9.50949 15.5267 9.53677 15.5312 9.56487C15.6102 10.0684 15.6731 10.5732 15.7159 11.0811C15.7192 11.1195 15.7225 11.1578 15.7259 11.1973C15.7572 11.6036 15.7596 12.0098 15.7598 12.4171C15.7598 12.4543 15.7599 12.4915 15.7599 12.5299C15.7593 13.1548 15.7333 13.7663 15.6456 14.3858C15.6397 14.4275 15.6339 14.4691 15.6278 14.512C15.555 15.0113 15.4528 15.5025 15.3313 15.992C15.3223 16.0283 15.3223 16.0283 15.3132 16.0654C15.2528 16.3064 15.1882 16.5422 15.0955 16.773C14.9431 17.1536 14.9527 17.5488 14.9534 17.9534C14.9533 17.979 14.9532 18.0046 14.9531 18.031C14.953 18.1016 14.9536 18.1722 14.9543 18.2428C14.9412 18.3701 14.9261 18.4101 14.837 18.4991C14.7485 18.5167 14.7485 18.5167 14.6404 18.5167C14.5992 18.5171 14.558 18.5174 14.5156 18.5178C14.4474 18.5173 14.4474 18.5173 14.3779 18.5167C14.3293 18.5169 14.2807 18.5171 14.2321 18.5173C14.0983 18.5178 13.9644 18.5175 13.8306 18.517C13.6864 18.5166 13.5421 18.517 13.3979 18.5173C13.1153 18.5178 12.8326 18.5175 12.55 18.517C12.221 18.5164 11.8921 18.5165 11.5632 18.5167C10.9765 18.5169 10.3897 18.5164 9.80298 18.5155C9.23319 18.5147 8.6634 18.5144 8.09361 18.5148C7.47365 18.5152 6.8537 18.5153 6.23375 18.5148C6.16768 18.5147 6.10162 18.5146 6.03555 18.5146C6.00305 18.5146 5.97054 18.5145 5.93705 18.5145C5.70758 18.5143 5.47812 18.5144 5.24866 18.5146C4.96916 18.5147 4.68966 18.5145 4.41015 18.5138C4.26745 18.5135 4.12475 18.5133 3.98205 18.5136C3.85155 18.5138 3.72105 18.5136 3.59055 18.513C3.5207 18.5127 3.45084 18.5131 3.38099 18.5134C3.33982 18.5131 3.29865 18.5128 3.25623 18.5125C3.22055 18.5124 3.18487 18.5124 3.14811 18.5124C3.05962 18.4991 3.05962 18.4991 2.99572 18.4505C2.9374 18.3707 2.93603 18.3121 2.92998 18.2135C2.9274 18.1726 2.92481 18.1318 2.92215 18.0897C2.91812 17.973 2.92119 17.8574 2.92572 17.7406C2.94152 17.2665 2.8862 16.8834 2.74102 16.433C2.53541 15.7913 2.44512 15.1206 2.36309 14.4539C2.35938 14.4242 2.35568 14.3945 2.35187 14.3638C2.25307 13.5594 2.24246 12.7565 2.24224 11.9469C2.24222 11.9214 2.24221 11.896 2.24219 11.8698C2.2419 10.9472 2.27199 10.0315 2.35649 9.11239C2.35948 9.07944 2.36246 9.04649 2.36553 9.01254C2.55282 6.95517 2.89949 4.92603 3.32494 2.90581C3.33255 2.86948 3.34017 2.83316 3.34801 2.79574C3.37848 2.65161 3.40899 2.50781 3.44598 2.3652C3.51844 2.08422 3.52808 1.82362 3.52105 1.53402C3.50552 0.666619 3.50552 0.666619 3.59449 0.547386C3.67863 0.482697 3.73072 0.48586 3.83632 0.485742ZM4.11431 1.02646C4.11431 1.29329 4.11431 1.56013 4.11431 1.83505C4.21872 1.91626 4.32314 1.99747 4.43071 2.08114C4.46769 2.11087 4.50467 2.1406 4.54277 2.17123C4.63893 2.23412 4.63893 2.23412 4.74102 2.19645C4.84966 2.15264 4.9476 2.10295 5.04911 2.04461C5.08538 2.02422 5.12166 2.00383 5.15904 1.98282C5.23454 1.93996 5.30989 1.89684 5.38508 1.85345C5.4214 1.83315 5.45773 1.81285 5.49515 1.79193C5.52787 1.77323 5.56059 1.75453 5.59429 1.73526C5.72105 1.68454 5.8067 1.67982 5.94243 1.69442C6.05794 1.74395 6.05794 1.74395 6.17562 1.81225C6.21887 1.83661 6.26213 1.86096 6.30539 1.88531C6.37253 1.92395 6.43954 1.9628 6.50649 2.00177C6.57169 2.03947 6.63729 2.0764 6.70296 2.11328C6.74171 2.13574 6.78047 2.1582 6.82039 2.18134C6.92316 2.23184 6.92316 2.23184 7.01912 2.19951C7.09994 2.15298 7.17856 2.10596 7.25571 2.05354C7.28338 2.03489 7.31104 2.01624 7.33955 1.99703C7.36794 1.97766 7.39633 1.95828 7.42559 1.93832C7.48247 1.89979 7.53936 1.86129 7.59629 1.82283C7.62131 1.80579 7.64634 1.78874 7.67212 1.77118C7.77229 1.70533 7.85317 1.6747 7.97516 1.6764C8.18836 1.72654 8.37245 1.91082 8.54379 2.04049C8.57689 2.06451 8.61 2.08853 8.64411 2.11328C8.67384 2.13574 8.70357 2.1582 8.7342 2.18134C8.82537 2.23247 8.82537 2.23247 8.93033 2.19951C9.03047 2.15405 9.12729 2.10681 9.2235 2.05354C9.2574 2.03489 9.2913 2.01624 9.32622 1.99703C9.36103 1.97766 9.39583 1.95828 9.43169 1.93832C9.50145 1.89982 9.57121 1.86132 9.64098 1.82283C9.68702 1.79726 9.68702 1.79726 9.73399 1.77118C9.87535 1.69343 9.96175 1.68344 10.126 1.69442C10.2356 1.73905 10.2356 1.73905 10.3451 1.80086C10.4048 1.83393 10.4048 1.83393 10.4657 1.86767C10.507 1.89119 10.5484 1.91474 10.5897 1.93832C10.6713 1.98429 10.7532 2.02992 10.8351 2.07551C10.871 2.09595 10.907 2.11638 10.9441 2.13744C11.0577 2.19613 11.0577 2.19613 11.1807 2.22177C11.2656 2.17056 11.34 2.11936 11.418 2.05917C11.4622 2.02654 11.5063 1.99394 11.5505 1.96139C11.5823 1.93774 11.5823 1.93774 11.6146 1.9136C11.6852 1.86108 11.756 1.80959 11.8289 1.76034C11.8477 1.7472 11.8665 1.73406 11.8859 1.72052C12.0016 1.67629 12.0764 1.67796 12.2002 1.69442C12.3212 1.75817 12.4289 1.83731 12.5386 1.91855C12.5968 1.96072 12.6552 2.00275 12.7136 2.04461C12.7391 2.06339 12.7646 2.08217 12.7908 2.10152C12.8767 2.15693 12.9444 2.19693 13.044 2.22177C13.1453 2.18969 13.1453 2.18969 13.2457 2.12866C13.2832 2.10781 13.3207 2.08697 13.3594 2.06549C13.4175 2.03191 13.4175 2.03191 13.4769 1.99765C13.5163 1.97553 13.5558 1.95342 13.5964 1.93063C13.6938 1.8759 13.7908 1.82039 13.8877 1.76474C13.8877 1.5211 13.8877 1.27747 13.8877 1.02646C10.6625 1.02646 7.43728 1.02646 4.11431 1.02646ZM9.8592 2.24629C9.81461 2.27229 9.81461 2.27229 9.76911 2.29881C9.736 2.31755 9.7029 2.33629 9.66879 2.3556C9.61777 2.38615 9.61777 2.38615 9.56572 2.41733C9.53185 2.43674 9.49797 2.45616 9.46307 2.47617C9.28282 2.57959 9.28283 2.57959 9.10634 2.68922C8.95745 2.78334 8.85911 2.81639 8.68462 2.78427C8.55116 2.71253 8.42962 2.62649 8.30669 2.53818C8.2411 2.49182 8.17537 2.44567 8.10949 2.39975C8.08067 2.37913 8.05186 2.35851 8.02218 2.33726C7.94595 2.28308 7.94595 2.28308 7.84087 2.29208C7.7771 2.32578 7.7771 2.32578 7.71247 2.37297C7.68806 2.38994 7.66366 2.40691 7.63852 2.4244C7.60055 2.45135 7.60055 2.45135 7.56182 2.47885C7.53664 2.49641 7.51147 2.51397 7.48553 2.53206C7.44886 2.55773 7.44886 2.55773 7.41144 2.58391C7.38788 2.60038 7.36432 2.61686 7.34005 2.63384C7.27469 2.67989 7.27469 2.67989 7.20572 2.74403C7.09842 2.80755 7.01012 2.81007 6.89165 2.78427C6.75002 2.72583 6.6171 2.65372 6.48296 2.57992C6.44698 2.56069 6.41099 2.54145 6.37392 2.52163C6.10037 2.3747 6.10037 2.3747 5.99676 2.30105C5.87825 2.24261 5.82219 2.25573 5.69634 2.29208C5.59026 2.34059 5.59026 2.34059 5.48444 2.40318C5.44499 2.42527 5.40554 2.44737 5.36489 2.47013C5.30308 2.50521 5.24137 2.54045 5.17978 2.57591C5.11973 2.61034 5.05929 2.6441 4.99884 2.67784C4.96318 2.69824 4.92752 2.71863 4.89077 2.73965C4.76281 2.79227 4.67341 2.79758 4.53618 2.78427C4.46039 2.752 4.46039 2.752 4.39803 2.70736C4.37519 2.6915 4.35235 2.67564 4.32882 2.6593C4.30588 2.64253 4.28295 2.62576 4.25933 2.60849C4.1237 2.49364 4.1237 2.49364 3.97368 2.43271C3.73561 3.53201 3.73561 3.53201 3.51226 4.63437C3.50525 4.67003 3.49824 4.70569 3.49101 4.74243C3.48181 4.79077 3.48181 4.79077 3.47243 4.84009C3.4673 4.86694 3.46218 4.8938 3.4569 4.92147C3.44239 5.01508 3.44239 5.01508 3.44634 5.17489C7.07763 5.17489 10.7089 5.17489 14.4502 5.17489C14.4055 4.88405 14.3589 4.59657 14.3011 4.30848C14.2937 4.27145 14.2864 4.23441 14.2788 4.19625C14.2633 4.11858 14.2477 4.04092 14.2322 3.96326C14.2087 3.84622 14.1855 3.72912 14.1623 3.61202C14.081 3.20425 13.9946 2.79947 13.8877 2.39755C13.7642 2.43622 13.653 2.47541 13.543 2.54394C13.5079 2.56502 13.5079 2.56502 13.4721 2.58651C13.4241 2.61576 13.3763 2.64534 13.3287 2.67523C13.193 2.75576 13.0712 2.81495 12.9081 2.80521C12.7414 2.75867 12.6095 2.64067 12.4749 2.53598C12.414 2.48895 12.3527 2.44237 12.291 2.39631C12.2643 2.37551 12.2375 2.35471 12.21 2.33327C12.1319 2.28459 12.1319 2.28459 12.0421 2.29668C11.9458 2.33013 11.8752 2.37205 11.7918 2.43065C11.7468 2.46141 11.7468 2.46141 11.7008 2.49279C11.6384 2.53615 11.5761 2.57972 11.514 2.62353C11.3872 2.70964 11.2823 2.7769 11.1322 2.81228C10.9288 2.76752 10.7605 2.66523 10.5809 2.56235C10.5065 2.52071 10.4321 2.4791 10.3577 2.43751C10.325 2.41892 10.2923 2.40032 10.2587 2.38116C10.2104 2.35447 10.2104 2.35447 10.1612 2.32724C10.1261 2.30597 10.0909 2.28471 10.0548 2.2628C9.95369 2.21116 9.95369 2.21116 9.8592 2.24629ZM3.34087 5.73739C3.25369 6.16772 3.25369 6.16772 3.1839 6.59996C3.17975 6.62911 3.1756 6.65827 3.17132 6.6883C3.15804 6.78219 3.14504 6.87612 3.13213 6.97006C3.12759 7.0029 3.12305 7.03573 3.11837 7.06956C3.02871 7.72102 2.95094 8.37294 2.89157 9.02787C2.88386 9.11214 2.87583 9.19638 2.86775 9.28062C2.78264 10.1837 2.76892 11.0844 2.76958 11.9908C2.76959 12.019 2.7696 12.0472 2.76961 12.0762C2.76969 12.2398 2.77007 12.4033 2.77087 12.5668C2.7711 12.6172 2.7713 12.6675 2.77145 12.7179C2.77169 12.7875 2.77219 12.8572 2.7727 12.9268C2.77294 12.966 2.77318 13.0052 2.77343 13.0456C2.77696 13.1729 2.77696 13.1729 2.81353 13.3663C6.86247 13.3663 10.9114 13.3663 15.0831 13.3663C15.1123 13.0858 15.1123 13.0858 15.1239 12.8074C15.1244 12.752 15.1244 12.752 15.1249 12.6955C15.125 12.6564 15.1252 12.6173 15.1254 12.5771C15.1256 12.5352 15.1258 12.4934 15.1261 12.4503C15.1267 12.314 15.1269 12.1777 15.127 12.0413C15.127 12.018 15.127 11.9946 15.1271 11.9705C15.1274 11.0615 15.0935 10.1586 15.0127 9.25302C15.0098 9.21951 15.0068 9.186 15.0037 9.15148C14.9158 8.17685 14.7881 7.20888 14.642 6.24139C14.6373 6.21064 14.6327 6.17988 14.6279 6.14819C14.6213 6.10544 14.6213 6.10544 14.6147 6.06182C14.6109 6.03721 14.6071 6.01261 14.6033 5.98726C14.5893 5.90364 14.5723 5.82053 14.5557 5.73739C10.8548 5.73739 7.15392 5.73739 3.34087 5.73739ZM2.84868 13.9288C2.8737 14.279 2.9061 14.6144 2.96074 14.9593C2.96638 14.9954 2.96638 14.9954 2.97213 15.0323C3.05936 15.5868 3.18317 16.1321 3.34087 16.671C3.53251 16.6027 3.69268 16.4918 3.86272 16.3819C3.98899 16.3108 4.0837 16.2679 4.22778 16.3038C4.25432 16.3153 4.28087 16.3267 4.30822 16.3385C4.33878 16.3517 4.36935 16.3648 4.40084 16.3784C4.62519 16.4825 4.84608 16.5939 5.06614 16.7068C5.12222 16.7345 5.12222 16.7345 5.17943 16.7629C5.21291 16.7798 5.24639 16.7968 5.28088 16.8143C5.43813 16.8659 5.54549 16.8313 5.69426 16.7668C5.72966 16.7483 5.76506 16.7298 5.80153 16.7107C5.86047 16.6804 5.86047 16.6804 5.9206 16.6495C6.00226 16.6068 6.08393 16.5642 6.16559 16.5215C6.68478 16.2547 6.68478 16.2547 6.85371 16.3039C6.9294 16.3391 6.99733 16.3796 7.06743 16.4249C7.09446 16.4422 7.12149 16.4596 7.14933 16.4775C7.26585 16.5537 7.38162 16.6308 7.49624 16.7099C7.52454 16.7285 7.55285 16.7471 7.58201 16.7663C7.60728 16.7834 7.63255 16.8006 7.65859 16.8183C7.73629 16.8555 7.73629 16.8555 7.82233 16.8233C7.91182 16.7761 7.99573 16.7257 8.07996 16.6696C8.11143 16.6492 8.14291 16.6288 8.17534 16.6078C8.24077 16.5651 8.30596 16.522 8.37089 16.4785C8.67581 16.2826 8.67581 16.2826 8.85353 16.2988C9.03777 16.348 9.20535 16.4377 9.37456 16.5238C9.41344 16.543 9.45233 16.5622 9.49239 16.5821C9.78758 16.7284 9.78758 16.7284 9.91459 16.8026C10.0747 16.8693 10.1759 16.8343 10.3322 16.7706C10.3664 16.7537 10.4005 16.7369 10.4357 16.7196C10.4736 16.7012 10.5114 16.6827 10.5504 16.6637C10.5895 16.6444 10.6285 16.625 10.6688 16.6051C10.783 16.549 10.8974 16.4931 11.0119 16.4376C11.07 16.4094 11.1279 16.3808 11.1854 16.3515C11.3289 16.2822 11.4158 16.2688 11.5674 16.3194C11.6836 16.3822 11.7935 16.4532 11.9036 16.526C11.9898 16.5818 12.076 16.6377 12.1624 16.6933C12.2203 16.7314 12.2769 16.7713 12.333 16.8119C12.4109 16.8571 12.4109 16.8571 12.4939 16.8199C12.5836 16.778 12.6645 16.732 12.7478 16.6785C12.777 16.6599 12.8063 16.6412 12.8364 16.622C12.8815 16.593 12.8815 16.593 12.9275 16.5633C12.9877 16.5248 13.0479 16.4863 13.1081 16.4478C13.1346 16.4308 13.1611 16.4137 13.1884 16.3962C13.3279 16.3089 13.4447 16.2932 13.6065 16.3194C13.7644 16.3789 13.9133 16.4539 14.0635 16.5304C14.1042 16.5505 14.1448 16.5706 14.1867 16.5913C14.2865 16.6408 14.3861 16.6908 14.4854 16.7413C14.5965 16.6302 14.6144 16.4885 14.6546 16.3392C14.6638 16.305 14.673 16.2708 14.6825 16.2356C14.875 15.4988 15.0479 14.6932 15.0479 13.9288C11.0222 13.9288 6.99642 13.9288 2.84868 13.9288ZM3.84404 17.0313C3.81601 17.0439 3.78798 17.0564 3.75911 17.0694C3.65989 17.12 3.65989 17.12 3.55181 17.2686C3.55181 17.5007 3.55181 17.7327 3.55181 17.9718C7.13669 17.9718 10.7216 17.9718 14.4151 17.9718C14.4151 17.7513 14.4151 17.5309 14.4151 17.3038C14.2784 17.2321 14.1414 17.1612 14.0042 17.0907C13.9654 17.0702 13.9267 17.0498 13.8867 17.0288C13.8305 17.0001 13.8305 17.0001 13.7731 16.9708C13.7386 16.9529 13.7042 16.9351 13.6687 16.9167C13.5553 16.8762 13.5084 16.878 13.3956 16.9171C13.303 16.966 13.303 16.966 13.2102 17.0282C13.158 17.0613 13.158 17.0613 13.1047 17.0951C13.0321 17.1419 12.9597 17.1888 12.8874 17.236C12.7456 17.3256 12.6252 17.4008 12.4606 17.4373C12.2803 17.3951 12.1398 17.3041 11.9849 17.2049C11.9385 17.1761 11.9385 17.1761 11.8911 17.1466C11.7722 17.0727 11.6541 16.9988 11.5391 16.9189C11.4365 16.8697 11.3954 16.887 11.2862 16.9171C11.2085 16.9521 11.1318 16.9894 11.0559 17.0282C11.0113 17.0505 10.9667 17.0728 10.9221 17.0951C10.8525 17.1302 10.7831 17.1653 10.7138 17.2009C10.6464 17.2354 10.5787 17.2692 10.511 17.3028C10.4708 17.3232 10.4307 17.3436 10.3894 17.3646C10.2044 17.4319 10.0615 17.4368 9.87235 17.3684C9.8188 17.3404 9.8188 17.3404 9.76416 17.3118C9.72462 17.2915 9.68508 17.2712 9.64434 17.2502C9.6039 17.2288 9.56345 17.2073 9.52178 17.1851C9.44073 17.1431 9.35967 17.101 9.27857 17.0591C9.24299 17.0403 9.2074 17.0215 9.17074 17.0022C9.00587 16.9103 9.00587 16.9103 8.8245 16.8893C8.74112 16.9226 8.66787 16.9637 8.5911 17.0103C8.54491 17.0382 8.54491 17.0382 8.49778 17.0667C8.4659 17.0862 8.43402 17.1057 8.40117 17.1258C8.36916 17.1452 8.33714 17.1646 8.30415 17.1845C8.18352 17.2577 8.06374 17.331 7.94634 17.4093C7.74567 17.4306 7.63351 17.3876 7.46294 17.284C7.4418 17.2715 7.42066 17.2589 7.39889 17.246C7.23008 17.1449 7.06667 17.0357 6.9058 16.9224C6.7975 16.8705 6.7604 16.8851 6.64556 16.9171C6.56785 16.9521 6.49116 16.9894 6.41526 17.0282C6.37066 17.0505 6.32605 17.0728 6.28143 17.0951C6.21189 17.1302 6.14244 17.1653 6.07318 17.2009C6.00581 17.2354 5.93811 17.2692 5.87033 17.3028C5.83021 17.3232 5.79009 17.3436 5.74876 17.3646C5.54892 17.4373 5.40936 17.4333 5.21448 17.3609C5.17025 17.3391 5.1263 17.3168 5.08261 17.2939C5.05907 17.2822 5.03553 17.2705 5.01127 17.2584C4.93686 17.2213 4.86286 17.1835 4.78887 17.1456C4.71419 17.1078 4.63945 17.0702 4.56458 17.0328C4.5182 17.0095 4.47195 16.9861 4.42583 16.9623C4.18252 16.8394 4.06776 16.9076 3.84404 17.0313Z" fill="#7CB184"/>
<path d="M14.4455 8.36365C14.57 8.4412 14.6616 8.5266 14.7314 8.65643C14.7556 8.78607 14.7556 8.78607 14.7314 8.90253C14.6418 9.00531 14.5839 9.03785 14.4502 9.06293C14.3447 9.04315 14.3447 9.04315 14.27 8.95966C14.1178 8.82067 13.947 8.81842 13.747 8.79706C13.6901 8.88749 13.6752 8.92632 13.6899 9.03436C13.6972 9.06047 13.7044 9.08657 13.7119 9.11347C13.7755 9.12944 13.7755 9.12944 13.8404 9.14574C14.5641 9.33304 14.5641 9.33304 14.7666 9.64081C14.8311 9.83439 14.842 10.0605 14.7699 10.2534C14.6535 10.4515 14.5027 10.5697 14.281 10.634C14.0005 10.6937 13.6725 10.6929 13.421 10.5421C13.1635 10.3547 13.1635 10.3547 13.1376 10.2055C13.1339 10.013 13.1339 10.013 13.2021 9.92206C13.3356 9.86867 13.4273 9.87091 13.5713 9.8869C13.6328 9.95502 13.6328 9.95502 13.6767 10.0275C13.7992 10.08 13.9324 10.0697 14.0635 10.0627C14.1462 10.0317 14.1462 10.0317 14.2041 9.99237C14.2041 9.94597 14.2041 9.89956 14.2041 9.85175C14.0727 9.79448 13.9468 9.7627 13.8064 9.73529C13.5253 9.67202 13.3104 9.57204 13.1494 9.3244C13.0698 9.17721 13.059 9.03168 13.0791 8.86737C13.1578 8.62712 13.2744 8.44545 13.4988 8.32684C13.7998 8.20742 14.1539 8.22697 14.4455 8.36365Z" fill="#7CB184"/>
<path d="M5.41415 8.56445C5.64711 8.61299 5.77508 8.8682 5.89974 9.05444C5.92622 9.0935 5.92622 9.0935 5.95323 9.13334C5.99637 9.19701 6.03932 9.2608 6.08212 9.32471C6.08343 9.29162 6.08474 9.25854 6.0861 9.22446C6.08841 9.18068 6.09072 9.1369 6.0931 9.0918C6.09514 9.04856 6.09718 9.00533 6.09928 8.96078C6.11814 8.82637 6.15251 8.73708 6.22274 8.62158C6.33144 8.56724 6.41942 8.5761 6.53915 8.58643C6.61633 8.63284 6.61633 8.63284 6.67977 8.72705C6.70078 8.85807 6.69862 8.98793 6.69721 9.12036C6.69726 9.15885 6.69732 9.19733 6.69737 9.23698C6.69731 9.31831 6.6969 9.39963 6.69617 9.48095C6.69516 9.60549 6.69545 9.72998 6.69591 9.85452C6.69569 9.93353 6.69539 10.0125 6.69502 10.0916C6.69512 10.1288 6.69522 10.1661 6.69533 10.2045C6.69466 10.2566 6.69466 10.2566 6.69398 10.3098C6.69379 10.3403 6.6936 10.3708 6.6934 10.4022C6.67657 10.5043 6.6471 10.5524 6.5743 10.6255C6.38583 10.6528 6.38583 10.6528 6.29305 10.6255C6.12939 10.4899 6.0247 10.3179 5.91293 10.1399C5.88645 10.0983 5.88645 10.0983 5.85944 10.0559C5.81627 9.98809 5.77332 9.92013 5.73055 9.85205C5.72965 9.8961 5.72874 9.94015 5.72781 9.98553C5.72583 10.0436 5.72381 10.1016 5.72176 10.1597C5.72102 10.2032 5.72102 10.2032 5.72025 10.2476C5.71161 10.4619 5.71161 10.4619 5.63223 10.5743C5.55111 10.6279 5.5104 10.6455 5.41415 10.6453C5.37934 10.6464 5.37934 10.6464 5.34383 10.6476C5.22767 10.6111 5.19602 10.5533 5.1329 10.4497C5.11151 10.3231 5.11235 10.1978 5.11298 10.0696C5.11277 10.0328 5.11255 9.996 5.11232 9.95809C5.11208 9.88044 5.11219 9.80278 5.11263 9.72512C5.11312 9.60636 5.11192 9.48769 5.11058 9.36893C5.11055 9.2934 5.11061 9.21786 5.11079 9.14233C5.11032 9.10688 5.10986 9.07143 5.10938 9.0349C5.11158 8.8686 5.11345 8.78815 5.21558 8.65193C5.30868 8.58643 5.30868 8.58643 5.41415 8.56445Z" fill="#7CB184"/>
<path d="M4.431 8.72632C4.55988 8.82887 4.63057 8.92076 4.66611 9.08227C4.63286 9.2213 4.58039 9.27469 4.46616 9.35913C4.36508 9.3811 4.36508 9.3811 4.25522 9.35913C4.19165 9.31656 4.1326 9.26985 4.07243 9.22262C3.96991 9.15902 3.87954 9.1699 3.76303 9.18335C3.72823 9.19495 3.69342 9.20655 3.65756 9.2185C3.65756 9.25331 3.65756 9.28811 3.65756 9.32397C3.68945 9.33377 3.68945 9.33377 3.72199 9.34377C3.81933 9.37401 3.91642 9.40501 4.01352 9.43603C4.04696 9.4463 4.08041 9.45656 4.11487 9.46714C4.36459 9.54778 4.53877 9.62569 4.6727 9.8623C4.73377 10.0625 4.73472 10.2034 4.6705 10.4028C4.58195 10.5647 4.47802 10.6637 4.32553 10.7654C4.03241 10.8411 3.71992 10.8299 3.44662 10.6951C3.34533 10.6273 3.2561 10.5601 3.20053 10.449C3.18469 10.1994 3.18469 10.1994 3.23569 10.0974C3.34794 10.0413 3.46673 10.0329 3.58725 10.0623C3.6085 10.0856 3.62976 10.1089 3.65166 10.133C3.75697 10.2296 3.82493 10.2173 3.96518 10.2117C4.00633 10.2104 4.04748 10.2091 4.08987 10.2078C4.12123 10.2062 4.15259 10.2046 4.18491 10.2029C4.18491 10.1565 4.18491 10.1101 4.18491 10.0623C4.15853 10.0563 4.13215 10.0503 4.10498 10.0441C3.43402 9.88526 3.43402 9.88526 3.20053 9.64038C3.09402 9.44865 3.06633 9.29299 3.10907 9.0776C3.1708 8.86675 3.2958 8.76452 3.48178 8.656C3.78939 8.50888 4.13871 8.57034 4.431 8.72632Z" fill="#7CB184"/>
<path d="M11.6729 8.58607C11.7586 8.63661 11.7586 8.63661 11.8136 8.7267C11.8189 8.80471 11.8189 8.80471 11.817 8.89053C11.8165 8.91909 11.816 8.94764 11.8155 8.97706C11.8148 8.99885 11.8142 9.02065 11.8136 9.04311C11.8316 9.02926 11.8497 9.01542 11.8683 9.00115C11.9507 8.93844 12.0337 8.87651 12.1168 8.81459C12.1452 8.79279 12.1736 8.77099 12.2029 8.74854C12.4165 8.59049 12.4165 8.59049 12.5661 8.56836C12.692 8.59281 12.7488 8.63002 12.8331 8.7267C12.8551 8.84755 12.8551 8.84755 12.8331 8.97279C12.6928 9.13484 12.5205 9.2577 12.3497 9.38588C12.2957 9.42669 12.2416 9.46752 12.1876 9.50838C12.1639 9.52622 12.1402 9.54407 12.1157 9.56245C12.0614 9.60232 12.0614 9.60232 12.0245 9.64076C12.0572 9.6641 12.0898 9.68744 12.1235 9.71149C12.385 9.89825 12.385 9.89825 12.4504 9.94514C12.4956 9.97732 12.541 10.0092 12.5867 10.0408C12.7591 10.1607 12.7591 10.1607 12.7979 10.2384C12.8138 10.488 12.8138 10.488 12.7628 10.59C12.6473 10.6477 12.5356 10.6478 12.4112 10.6251C12.3011 10.5674 12.2082 10.493 12.1124 10.4142C12.074 10.384 12.074 10.384 12.0349 10.3532C11.9724 10.3038 11.9103 10.2539 11.8487 10.2033C11.8429 10.2401 11.8429 10.2401 11.837 10.2777C11.8287 10.3257 11.8287 10.3257 11.8201 10.3746C11.8148 10.4065 11.8095 10.4383 11.8041 10.4711C11.7784 10.5548 11.7784 10.5548 11.6729 10.6251C11.5475 10.6446 11.4305 10.6514 11.3236 10.579C11.2569 10.4731 11.2465 10.3816 11.2459 10.2598C11.2457 10.2287 11.2455 10.1976 11.2453 10.1656C11.2452 10.132 11.2452 10.0985 11.2452 10.064C11.245 10.0295 11.2449 9.99491 11.2448 9.95932C11.2446 9.88621 11.2445 9.81309 11.2445 9.73998C11.2445 9.62826 11.2438 9.51655 11.2432 9.40483C11.2431 9.33379 11.243 9.26274 11.243 9.1917C11.2427 9.15833 11.2424 9.12496 11.2422 9.09058C11.2432 8.78866 11.2432 8.78866 11.3214 8.65639C11.4522 8.56919 11.5182 8.56978 11.6729 8.58607Z" fill="#7CB184"/>
<path d="M7.92773 8.56387C7.97613 8.56319 7.97613 8.56319 8.02551 8.5625C8.15692 8.5946 8.22199 8.65329 8.29688 8.76163C8.36791 8.89528 8.42711 9.03309 8.48584 9.17252C8.50255 9.21155 8.51926 9.25059 8.53648 9.29081C8.58601 9.40718 8.63483 9.52384 8.68359 9.64053C8.69754 9.6732 8.71149 9.70587 8.72586 9.73953C8.76226 9.82492 8.79781 9.9106 8.83301 9.99649C8.84354 10.0212 8.85407 10.0459 8.86492 10.0713C8.92945 10.234 8.93668 10.3498 8.89453 10.5194C8.81643 10.6091 8.76768 10.6226 8.65063 10.6425C8.50322 10.6184 8.45881 10.5655 8.36719 10.4491C8.30371 10.3331 8.26172 10.232 8.26172 10.0976C8.05289 10.0976 7.84406 10.0976 7.62891 10.0976C7.6144 10.1519 7.5999 10.2063 7.58496 10.2624C7.50348 10.5271 7.50348 10.5271 7.38281 10.6249C7.28334 10.6495 7.20096 10.6499 7.10156 10.6249C7.01147 10.5524 7.01147 10.5524 6.96094 10.4491C6.97414 10.2412 7.0416 10.0619 7.11639 9.86987C7.12841 9.83864 7.14043 9.80742 7.15281 9.77524C7.17821 9.70954 7.20375 9.64389 7.22942 9.57829C7.26845 9.4782 7.3067 9.37784 7.34491 9.27744C7.36976 9.21342 7.39467 9.14943 7.41962 9.08545C7.43655 9.04067 7.43655 9.04067 7.45382 8.995C7.54621 8.76224 7.64939 8.55996 7.92773 8.56387ZM7.91016 9.35928C7.89855 9.41729 7.88695 9.4753 7.875 9.53506C7.92141 9.52346 7.96781 9.51186 8.01562 9.49991C7.98082 9.4535 7.94602 9.4071 7.91016 9.35928Z" fill="#7CB184"/>
<path d="M10.547 8.69231C10.6371 8.77141 10.6371 8.77141 10.6876 8.86809C10.6903 9.01936 10.6757 9.08768 10.5756 9.20208C10.4767 9.25481 10.4767 9.25481 10.3668 9.25041C10.2658 9.21965 10.2658 9.21965 10.1603 9.14934C9.93539 9.12948 9.93539 9.12948 9.73841 9.21965C9.61428 9.39698 9.60785 9.57328 9.63294 9.78215C9.67434 9.89807 9.70338 9.96557 9.79993 10.0414C9.95922 10.0857 10.0832 10.0853 10.2306 10.0085C10.3655 9.94384 10.4392 9.95533 10.5822 9.99309C10.6503 10.0304 10.6503 10.0304 10.6876 10.0986C10.7063 10.2126 10.716 10.2719 10.6876 10.3798C10.5634 10.5473 10.3986 10.6272 10.1954 10.6611C9.88478 10.687 9.60969 10.657 9.35828 10.4611C9.13392 10.2492 9.06196 9.97748 9.03529 9.67668C9.03148 9.37004 9.11153 9.13577 9.27039 8.87688C9.60609 8.55026 10.1319 8.47341 10.547 8.69231Z" fill="#7CB184"/>
</g>
<defs>
<clipPath id="clip0_2217_3784">
<rect width="18" height="18" fill="white" transform="translate(0 0.5)"/>
</clipPath>
</defs>
</svg>
