<svg width="20" height="21" viewBox="0 0 20 21" fill="none" xmlns="http://www.w3.org/2000/svg">
<path d="M10.4274 2.71174C10.3093 2.60679 10.1568 2.54883 9.99887 2.54883C9.84091 2.54883 9.68844 2.60679 9.57037 2.71174C8.77853 3.41406 8.19669 4.32199 7.88938 5.33482C7.58207 6.34766 7.5613 7.42582 7.82937 8.44974C6.56025 7.69992 5.08922 7.3637 3.62037 7.48774C3.53319 7.49491 3.44828 7.51926 3.37055 7.55939C3.29282 7.59953 3.2238 7.65464 3.16747 7.72157C3.11114 7.7885 3.06861 7.86592 3.04234 7.94935C3.01606 8.03279 3.00655 8.12061 3.01437 8.20774C3.13837 9.57274 3.77837 10.9277 4.66537 11.9777C4.31727 11.955 3.96797 11.9584 3.62037 11.9877C3.53319 11.9949 3.44828 12.0193 3.37055 12.0594C3.29282 12.0995 3.2238 12.1546 3.16747 12.2216C3.11114 12.2885 3.06861 12.3659 3.04234 12.4494C3.01606 12.5328 3.00655 12.6206 3.01437 12.7077C3.15857 14.2904 3.88919 15.762 5.06277 16.8337C6.23635 17.9053 7.76813 18.4996 9.35737 18.4997H10.6404C12.2293 18.4993 13.7607 17.9051 14.934 16.8337C16.1074 15.7623 16.8379 14.2911 16.9824 12.7087C16.9903 12.6215 16.9809 12.5336 16.9547 12.4501C16.9285 12.3665 16.886 12.289 16.8296 12.2219C16.7733 12.1549 16.7042 12.0997 16.6264 12.0595C16.5486 12.0193 16.4636 11.9949 16.3764 11.9877C16.0288 11.9584 15.6795 11.955 15.3314 11.9777C16.2184 10.9277 16.8584 9.57274 16.9814 8.20774C16.9891 8.12071 16.9795 8.03302 16.9532 7.9497C16.927 7.86638 16.8845 7.78906 16.8283 7.72217C16.7721 7.65529 16.7032 7.60015 16.6257 7.55992C16.5481 7.51969 16.4634 7.49516 16.3764 7.48774C14.9079 7.36391 13.4372 7.70012 12.1684 8.44974C12.4366 7.42591 12.4159 6.34781 12.1088 5.33498C11.8017 4.32215 11.219 3.41417 10.4274 2.71174ZM9.99937 14.9277C9.14409 13.7413 7.94554 12.8457 6.56537 12.3617L6.53037 12.3357C5.32937 11.5197 4.31337 9.99974 4.05637 8.46574C5.56156 8.42643 7.02841 8.94339 8.17637 9.91774C8.93537 10.5607 9.14437 11.1477 9.33137 11.6757C9.39937 11.8657 9.46437 12.0487 9.55137 12.2227C9.59284 12.3059 9.65668 12.3759 9.73573 12.4249C9.81478 12.4738 9.9059 12.4997 9.99887 12.4997C10.0918 12.4997 10.183 12.4738 10.262 12.4249C10.3411 12.3759 10.4049 12.3059 10.4464 12.2227C10.5334 12.0487 10.5984 11.8657 10.6664 11.6747C10.8534 11.1487 11.0624 10.5607 11.8224 9.91774C12.9699 8.94327 14.4364 8.42596 15.9414 8.46474C15.6844 9.99974 14.6684 11.5187 13.4674 12.3357L13.4324 12.3617C12.0526 12.8459 10.8544 13.7415 9.99937 14.9277ZM9.35737 17.4997C8.07817 17.4993 6.84112 17.0423 5.86893 16.2109C4.89675 15.3795 4.25328 14.2284 4.05437 12.9647C5.17116 12.9361 6.27455 13.2132 7.24531 13.7661C8.21607 14.3189 9.01728 15.1266 9.56237 16.1017C9.60576 16.1794 9.66909 16.2441 9.74582 16.2891C9.82255 16.3341 9.9099 16.3579 9.99887 16.3579C10.0878 16.3579 10.1752 16.3341 10.2519 16.2891C10.3287 16.2441 10.392 16.1794 10.4354 16.1017C10.9805 15.1266 11.7817 14.3189 12.7524 13.7661C13.7232 13.2132 14.8266 12.9361 15.9434 12.9647C15.7444 14.2286 15.1008 15.3798 14.1284 16.2112C13.156 17.0426 11.9187 17.4996 10.6394 17.4997H9.35737ZM9.99837 10.3157C9.13077 9.42983 8.64488 8.23922 8.64488 6.99924C8.64488 5.75925 9.13077 4.56864 9.99837 3.68274C10.866 4.56864 11.3519 5.75925 11.3519 6.99924C11.3519 8.23922 10.866 9.42983 9.99837 10.3157Z" fill="#7CB184"/>
</svg>
